{
.appVersion = "1264";
copyright = "Copyright © 2018 by Andrew Olson. All rights reserved.";
customParameters = (
{
name = "New Parameter";
value = "New Value";
}
);
date = "2018-03-20 15:06:25 +0000";
designer = "Andrew Olson";
familyName = Hydrophobicity;
fontMaster = (
{
ascender = 2146;
capHeight = 1456;
customParameters = (
{
name = typoAscender;
value = 2146;
},
{
name = typoDescender;
value = -555;
},
{
name = typoLineGap;
value = 0;
},
{
name = winAscent;
value = 2146;
},
{
name = winDescent;
value = 555;
},
{
name = hheaAscender;
value = 2146;
},
{
name = hheaDescender;
value = -555;
},
{
name = underlinePosition;
value = -200;
},
{
name = underlineThickness;
value = 100;
},
{
name = "Color Palettes";
value = (
(
"252,255,148,255",
"182,1,92,255",
"6,0,255,255",
"14,0,245,255",
"201,2,70,255",
"117,0,159,255",
"24,0,237,255",
"237,4,21,255",
"185,1,89,255",
"209,3,59,255",
"80,0,193,255",
"105,0,171,255",
"108,0,168,255",
"102,0,174,255",
"90,0,185,255",
"247,4,7,255",
"115,0,161,255",
"204,204,204,255"
)
);
}
);
descender = -555;
id = "C0D79264-8DAD-424A-B50D-8F788F2E65C8";
weightValue = 300;
widthValue = 5;
xHeight = 1082;
}
);
glyphs = (
{
glyphname = A;
lastChange = "2018-03-22 14:43:36 +0000";
layers = (
{
layerId = "C0D79264-8DAD-424A-B50D-8F788F2E65C8";
paths = (
{
closed = 1;
nodes = (
"1153 0 LINE",
"683 1456 LINE",
"575 1456 LINE",
"101 0 LINE",
"222 0 LINE",
"351 406 LINE",
"905 406 LINE",
"1033 0 LINE"
);
},
{
closed = 1;
nodes = (
"871 513 LINE",
"385 513 LINE",
"629 1279 LINE"
);
},
{
closed = 1;
nodes = (
"0 2145 LINE",
"1 2146 LINE",
"0 2146 LINE"
);
},
{
closed = 1;
nodes = (
"1229 2145 LINE",
"1229 2146 LINE",
"1228 2146 LINE"
);
},
{
closed = 1;
nodes = (
"0 -555 LINE",
"1 -555 LINE",
"0 -554 LINE"
);
},
{
closed = 1;
nodes = (
"1228 -555 LINE",
"1229 -555 LINE",
"1229 -554 LINE"
);
}
);
width = 1229;
},
{
associatedMasterId = "C0D79264-8DAD-424A-B50D-8F788F2E65C8";
layerId = "B6A7BAB2-1F78-427C-8B04-4BE15AE1B794";
name = "Color 1";
paths = (
{
closed = 1;
nodes = (
"1153 0 LINE",
"683 1456 LINE",
"575 1456 LINE",
"101 0 LINE",
"222 0 LINE",
"351 406 LINE",
"905 406 LINE",
"1033 0 LINE"
);
},
{
closed = 1;
nodes = (
"871 513 LINE",
"385 513 LINE",
"629 1279 LINE"
);
},
{
closed = 1;
nodes = (
"0 -555 LINE",
"1229 -555 LINE",
"1229 2146 LINE",
"0 2146 LINE"
);
}
);
width = 1229;
},
{
associatedMasterId = "C0D79264-8DAD-424A-B50D-8F788F2E65C8";
layerId = "062CDF4C-3D24-497C-8AEA-7F40A7469A48";
name = "Color 0";
paths = (
{
closed = 1;
nodes = (
"1153 0 LINE",
"683 1456 LINE",
"575 1456 LINE",
"101 0 LINE",
"222 0 LINE",
"351 406 LINE",
"905 406 LINE",
"1033 0 LINE"
);
},
{
closed = 1;
nodes = (
"871 513 LINE",
"385 513 LINE",
"629 1279 LINE"
);
}
);
width = 1229;
}
);
note = A;
unicode = 0041;
},
{
glyphname = B;
lastChange = "2018-03-22 14:43:40 +0000";
layers = (
{
layerId = "C0D79264-8DAD-424A-B50D-8F788F2E65C8";
paths = (
{
closed = 1;
nodes = (
"772 1 OFFCURVE",
"886 40 OFFCURVE",
"970 110 CURVE SMOOTH",
"1054 180 OFFCURVE",
"1107 281 OFFCURVE",
"1106 410 CURVE",
"1106 499 OFFCURVE",
"1074 578 OFFCURVE",
"1022 639 CURVE SMOOTH",
"970 699 OFFCURVE",
"897 741 OFFCURVE",
"813 761 CURVE",
"881 786 OFFCURVE",
"941 824 OFFCURVE",
"985 876 CURVE SMOOTH",
"1028 927 OFFCURVE",
"1055 992 OFFCURVE",
"1055 1075 CURVE SMOOTH",
"1056 1207 OFFCURVE",
"999 1302 OFFCURVE",
"912 1364 CURVE SMOOTH",
"825 1426 OFFCURVE",
"709 1455 OFFCURVE",
"592 1456 CURVE SMOOTH",
"194 1456 LINE",
"194 0 LINE",
"652 0 LINE SMOOTH"
);
},
{
closed = 1;
nodes = (
"749 697 OFFCURVE",
"830 670 OFFCURVE",
"890 621 CURVE SMOOTH",
"949 572 OFFCURVE",
"985 500 OFFCURVE",
"985 408 CURVE SMOOTH",
"985 313 OFFCURVE",
"947 239 OFFCURVE",
"887 187 CURVE SMOOTH",
"826 135 OFFCURVE",
"743 105 OFFCURVE",
"655 104 CURVE SMOOTH",
"314 104 LINE",
"314 700 LINE",
"664 700 LINE"
);
},
{
closed = 1;
nodes = (
"595 1351 LINE SMOOTH",
"680 1350 OFFCURVE",
"765 1330 OFFCURVE",
"829 1287 CURVE SMOOTH",
"893 1243 OFFCURVE",
"935 1175 OFFCURVE",
"935 1078 CURVE SMOOTH",
"935 985 OFFCURVE",
"894 917 OFFCURVE",
"834 872 CURVE SMOOTH",
"773 827 OFFCURVE",
"691 804 OFFCURVE",
"607 803 CURVE SMOOTH",
"314 803 LINE",
"314 1351 LINE"
);
},
{
closed = 1;
nodes = (
"0 2145 LINE",
"1 2146 LINE",
"0 2146 LINE"
);
},
{
closed = 1;
nodes = (
"1229 2145 LINE",
"1229 2146 LINE",
"1228 2146 LINE"
);
},
{
closed = 1;
nodes = (
"0 -555 LINE",
"1 -555 LINE",
"0 -554 LINE"
);
},
{
closed = 1;
nodes = (
"1228 -555 LINE",
"1229 -555 LINE",
"1229 -554 LINE"
);
}
);
width = 1229;
},
{
associatedMasterId = "C0D79264-8DAD-424A-B50D-8F788F2E65C8";
layerId = "092A5753-1603-4C1C-B695-11AB8EF2E60E";
name = "Color 3";
paths = (
{
closed = 1;
nodes = (
"772 1 OFFCURVE",
"886 40 OFFCURVE",
"970 110 CURVE SMOOTH",
"1054 180 OFFCURVE",
"1107 281 OFFCURVE",
"1106 410 CURVE",
"1106 499 OFFCURVE",
"1074 578 OFFCURVE",
"1022 639 CURVE SMOOTH",
"970 699 OFFCURVE",
"897 741 OFFCURVE",
"813 761 CURVE",
"881 786 OFFCURVE",
"941 824 OFFCURVE",
"985 876 CURVE SMOOTH",
"1028 927 OFFCURVE",
"1055 992 OFFCURVE",
"1055 1075 CURVE SMOOTH",
"1056 1207 OFFCURVE",
"999 1302 OFFCURVE",
"912 1364 CURVE SMOOTH",
"825 1426 OFFCURVE",
"709 1455 OFFCURVE",
"592 1456 CURVE SMOOTH",
"194 1456 LINE",
"194 0 LINE",
"652 0 LINE SMOOTH"
);
},
{
closed = 1;
nodes = (
"749 697 OFFCURVE",
"830 670 OFFCURVE",
"890 621 CURVE SMOOTH",
"949 572 OFFCURVE",
"985 500 OFFCURVE",
"985 408 CURVE SMOOTH",
"985 313 OFFCURVE",
"947 239 OFFCURVE",
"887 187 CURVE SMOOTH",
"826 135 OFFCURVE",
"743 105 OFFCURVE",
"655 104 CURVE SMOOTH",
"314 104 LINE",
"314 700 LINE",
"664 700 LINE"
);
},
{
closed = 1;
nodes = (
"595 1351 LINE SMOOTH",
"680 1350 OFFCURVE",
"765 1330 OFFCURVE",
"829 1287 CURVE SMOOTH",
"893 1243 OFFCURVE",
"935 1175 OFFCURVE",
"935 1078 CURVE SMOOTH",
"935 985 OFFCURVE",
"894 917 OFFCURVE",
"834 872 CURVE SMOOTH",
"773 827 OFFCURVE",
"691 804 OFFCURVE",
"607 803 CURVE SMOOTH",
"314 803 LINE",
"314 1351 LINE"
);
},
{
closed = 1;
nodes = (
"0 -555 LINE",
"1229 -555 LINE",
"1229 2146 LINE",
"0 2146 LINE"
);
}
);
width = 1229;
},
{
associatedMasterId = "C0D79264-8DAD-424A-B50D-8F788F2E65C8";
layerId = "F6C475AC-483D-4AB2-87FF-FC0596FC1F8A";
name = "Color 0";
paths = (
{
closed = 1;
nodes = (
"772 1 OFFCURVE",
"886 40 OFFCURVE",
"970 110 CURVE SMOOTH",
"1054 180 OFFCURVE",
"1107 281 OFFCURVE",
"1106 410 CURVE",
"1106 499 OFFCURVE",
"1074 578 OFFCURVE",
"1022 639 CURVE SMOOTH",
"970 699 OFFCURVE",
"897 741 OFFCURVE",
"813 761 CURVE",
"881 786 OFFCURVE",
"941 824 OFFCURVE",
"985 876 CURVE SMOOTH",
"1028 927 OFFCURVE",
"1055 992 OFFCURVE",
"1055 1075 CURVE SMOOTH",
"1056 1207 OFFCURVE",
"999 1302 OFFCURVE",
"912 1364 CURVE SMOOTH",
"825 1426 OFFCURVE",
"709 1455 OFFCURVE",
"592 1456 CURVE SMOOTH",
"194 1456 LINE",
"194 0 LINE",
"652 0 LINE SMOOTH"
);
},
{
closed = 1;
nodes = (
"749 697 OFFCURVE",
"830 670 OFFCURVE",
"890 621 CURVE SMOOTH",
"949 572 OFFCURVE",
"985 500 OFFCURVE",
"985 408 CURVE SMOOTH",
"985 313 OFFCURVE",
"947 239 OFFCURVE",
"887 187 CURVE SMOOTH",
"826 135 OFFCURVE",
"743 105 OFFCURVE",
"655 104 CURVE SMOOTH",
"314 104 LINE",
"314 700 LINE",
"664 700 LINE"
);
},
{
closed = 1;
nodes = (
"595 1351 LINE SMOOTH",
"680 1350 OFFCURVE",
"765 1330 OFFCURVE",
"829 1287 CURVE SMOOTH",
"893 1243 OFFCURVE",
"935 1175 OFFCURVE",
"935 1078 CURVE SMOOTH",
"935 985 OFFCURVE",
"894 917 OFFCURVE",
"834 872 CURVE SMOOTH",
"773 827 OFFCURVE",
"691 804 OFFCURVE",
"607 803 CURVE SMOOTH",
"314 803 LINE",
"314 1351 LINE"
);
}
);
width = 1229;
}
);
note = B;
unicode = 0042;
},
{
glyphname = C;
lastChange = "2018-03-22 14:43:42 +0000";
layers = (
{
layerId = "C0D79264-8DAD-424A-B50D-8F788F2E65C8";
paths = (
{
closed = 1;
nodes = (
"965 341 OFFCURVE",
"931 250 OFFCURVE",
"873 185 CURVE SMOOTH",
"815 120 OFFCURVE",
"732 81 OFFCURVE",
"620 81 CURVE SMOOTH",
"525 81 OFFCURVE",
"453 116 OFFCURVE",
"398 170 CURVE SMOOTH",
"342 224 OFFCURVE",
"304 297 OFFCURVE",
"280 377 CURVE SMOOTH",
"256 457 OFFCURVE",
"245 543 OFFCURVE",
"245 622 CURVE SMOOTH",
"245 835 LINE SMOOTH",
"245 914 OFFCURVE",
"256 999 OFFCURVE",
"280 1079 CURVE SMOOTH",
"304 1159 OFFCURVE",
"342 1233 OFFCURVE",
"398 1286 CURVE SMOOTH",
"453 1339 OFFCURVE",
"525 1374 OFFCURVE",
"620 1374 CURVE SMOOTH",
"731 1374 OFFCURVE",
"812 1334 OFFCURVE",
"871 1268 CURVE SMOOTH",
"930 1202 OFFCURVE",
"964 1111 OFFCURVE",
"980 1011 CURVE",
"1099 1011 LINE",
"1084 1144 OFFCURVE",
"1035 1260 OFFCURVE",
"954 1344 CURVE SMOOTH",
"873 1427 OFFCURVE",
"761 1476 OFFCURVE",
"620 1476 CURVE SMOOTH",
"504 1476 OFFCURVE",
"410 1439 OFFCURVE",
"338 1377 CURVE SMOOTH",
"265 1315 OFFCURVE",
"212 1230 OFFCURVE",
"177 1135 CURVE SMOOTH",
"142 1039 OFFCURVE",
"126 934 OFFCURVE",
"125 833 CURVE SMOOTH",
"125 622 LINE SMOOTH",
"126 521 OFFCURVE",
"142 416 OFFCURVE",
"177 321 CURVE SMOOTH",
"212 225 OFFCURVE",
"265 140 OFFCURVE",
"338 79 CURVE SMOOTH",
"410 18 OFFCURVE",
"504 -20 OFFCURVE",
"620 -20 CURVE SMOOTH",
"759 -20 OFFCURVE",
"871 29 OFFCURVE",
"952 113 CURVE SMOOTH",
"1033 196 OFFCURVE",
"1083 311 OFFCURVE",
"1099 442 CURVE",
"980 442 LINE"
);
},
{
closed = 1;
nodes = (
"0 2145 LINE",
"1 2146 LINE",
"0 2146 LINE"
);
},
{
closed = 1;
nodes = (
"1229 2145 LINE",
"1229 2146 LINE",
"1228 2146 LINE"
);
},
{
closed = 1;
nodes = (
"0 -555 LINE",
"1 -555 LINE",
"0 -554 LINE"
);
},
{
closed = 1;
nodes = (
"1228 -555 LINE",
"1229 -555 LINE",
"1229 -554 LINE"
);
}
);
width = 1229;
},
{
associatedMasterId = "C0D79264-8DAD-424A-B50D-8F788F2E65C8";
layerId = "BF2D327D-4127-4435-B341-A582AA2F8B8B";
name = "Color 4";
paths = (
{
closed = 1;
nodes = (
"965 341 OFFCURVE",
"931 250 OFFCURVE",
"873 185 CURVE SMOOTH",
"815 120 OFFCURVE",
"732 81 OFFCURVE",
"620 81 CURVE SMOOTH",
"525 81 OFFCURVE",
"453 116 OFFCURVE",
"398 170 CURVE SMOOTH",
"342 224 OFFCURVE",
"304 297 OFFCURVE",
"280 377 CURVE SMOOTH",
"256 457 OFFCURVE",
"245 543 OFFCURVE",
"245 622 CURVE SMOOTH",
"245 835 LINE SMOOTH",
"245 914 OFFCURVE",
"256 999 OFFCURVE",
"280 1079 CURVE SMOOTH",
"304 1159 OFFCURVE",
"342 1233 OFFCURVE",
"398 1286 CURVE SMOOTH",
"453 1339 OFFCURVE",
"525 1374 OFFCURVE",
"620 1374 CURVE SMOOTH",
"731 1374 OFFCURVE",
"812 1334 OFFCURVE",
"871 1268 CURVE SMOOTH",
"930 1202 OFFCURVE",
"964 1111 OFFCURVE",
"980 1011 CURVE",
"1099 1011 LINE",
"1084 1144 OFFCURVE",
"1035 1260 OFFCURVE",
"954 1344 CURVE SMOOTH",
"873 1427 OFFCURVE",
"761 1476 OFFCURVE",
"620 1476 CURVE SMOOTH",
"504 1476 OFFCURVE",
"410 1439 OFFCURVE",
"338 1377 CURVE SMOOTH",
"265 1315 OFFCURVE",
"212 1230 OFFCURVE",
"177 1135 CURVE SMOOTH",
"142 1039 OFFCURVE",
"126 934 OFFCURVE",
"125 833 CURVE SMOOTH",
"125 622 LINE SMOOTH",
"126 521 OFFCURVE",
"142 416 OFFCURVE",
"177 321 CURVE SMOOTH",
"212 225 OFFCURVE",
"265 140 OFFCURVE",
"338 79 CURVE SMOOTH",
"410 18 OFFCURVE",
"504 -20 OFFCURVE",
"620 -20 CURVE SMOOTH",
"759 -20 OFFCURVE",
"871 29 OFFCURVE",
"952 113 CURVE SMOOTH",
"1033 196 OFFCURVE",
"1083 311 OFFCURVE",
"1099 442 CURVE",
"980 442 LINE"
);
},
{
closed = 1;
nodes = (
"0 -555 LINE",
"1229 -555 LINE",
"1229 2146 LINE",
"0 2146 LINE"
);
}
);
width = 1229;
},
{
associatedMasterId = "C0D79264-8DAD-424A-B50D-8F788F2E65C8";
layerId = "0316046D-A477-4959-BF16-F5DCC44C3D42";
name = "Color 0";
paths = (
{
closed = 1;
nodes = (
"965 341 OFFCURVE",
"931 250 OFFCURVE",
"873 185 CURVE SMOOTH",
"815 120 OFFCURVE",
"732 81 OFFCURVE",
"620 81 CURVE SMOOTH",
"525 81 OFFCURVE",
"453 116 OFFCURVE",
"398 170 CURVE SMOOTH",
"342 224 OFFCURVE",
"304 297 OFFCURVE",
"280 377 CURVE SMOOTH",
"256 457 OFFCURVE",
"245 543 OFFCURVE",
"245 622 CURVE SMOOTH",
"245 835 LINE SMOOTH",
"245 914 OFFCURVE",
"256 999 OFFCURVE",
"280 1079 CURVE SMOOTH",
"304 1159 OFFCURVE",
"342 1233 OFFCURVE",
"398 1286 CURVE SMOOTH",
"453 1339 OFFCURVE",
"525 1374 OFFCURVE",
"620 1374 CURVE SMOOTH",
"731 1374 OFFCURVE",
"812 1334 OFFCURVE",
"871 1268 CURVE SMOOTH",
"930 1202 OFFCURVE",
"964 1111 OFFCURVE",
"980 1011 CURVE",
"1099 1011 LINE",
"1084 1144 OFFCURVE",
"1035 1260 OFFCURVE",
"954 1344 CURVE SMOOTH",
"873 1427 OFFCURVE",
"761 1476 OFFCURVE",
"620 1476 CURVE SMOOTH",
"504 1476 OFFCURVE",
"410 1439 OFFCURVE",
"338 1377 CURVE SMOOTH",
"265 1315 OFFCURVE",
"212 1230 OFFCURVE",
"177 1135 CURVE SMOOTH",
"142 1039 OFFCURVE",
"126 934 OFFCURVE",
"125 833 CURVE SMOOTH",
"125 622 LINE SMOOTH",
"126 521 OFFCURVE",
"142 416 OFFCURVE",
"177 321 CURVE SMOOTH",
"212 225 OFFCURVE",
"265 140 OFFCURVE",
"338 79 CURVE SMOOTH",
"410 18 OFFCURVE",
"504 -20 OFFCURVE",
"620 -20 CURVE SMOOTH",
"759 -20 OFFCURVE",
"871 29 OFFCURVE",
"952 113 CURVE SMOOTH",
"1033 196 OFFCURVE",
"1083 311 OFFCURVE",
"1099 442 CURVE",
"980 442 LINE"
);
}
);
width = 1229;
}
);
note = C;
unicode = 0043;
},
{
glyphname = D;
lastChange = "2018-03-22 14:43:44 +0000";
layers = (
{
layerId = "C0D79264-8DAD-424A-B50D-8F788F2E65C8";
paths = (
{
closed = 1;
nodes = (
"716 3 OFFCURVE",
"864 77 OFFCURVE",
"965 196 CURVE SMOOTH",
"1066 315 OFFCURVE",
"1120 477 OFFCURVE",
"1123 656 CURVE SMOOTH",
"1123 799 LINE",
"1120 978 OFFCURVE",
"1066 1140 OFFCURVE",
"965 1259 CURVE SMOOTH",
"864 1378 OFFCURVE",
"716 1453 OFFCURVE",
"529 1456 CURVE SMOOTH",
"177 1456 LINE",
"177 0 LINE",
"529 0 LINE SMOOTH"
);
},
{
closed = 1;
nodes = (
"685 1351 OFFCURVE",
"803 1285 OFFCURVE",
"882 1184 CURVE SMOOTH",
"961 1083 OFFCURVE",
"1002 946 OFFCURVE",
"1003 802 CURVE SMOOTH",
"1003 656 LINE SMOOTH",
"1002 511 OFFCURVE",
"961 374 OFFCURVE",
"882 272 CURVE SMOOTH",
"803 170 OFFCURVE",
"685 104 OFFCURVE",
"529 101 CURVE SMOOTH",
"297 101 LINE",
"297 1354 LINE",
"529 1354 LINE SMOOTH"
);
},
{
closed = 1;
nodes = (
"0 2145 LINE",
"1 2146 LINE",
"0 2146 LINE"
);
},
{
closed = 1;
nodes = (
"1229 2145 LINE",
"1229 2146 LINE",
"1228 2146 LINE"
);
},
{
closed = 1;
nodes = (
"0 -555 LINE",
"1 -555 LINE",
"0 -554 LINE"
);
},
{
closed = 1;
nodes = (
"1228 -555 LINE",
"1229 -555 LINE",
"1229 -554 LINE"
);
}
);
width = 1229;
},
{
associatedMasterId = "C0D79264-8DAD-424A-B50D-8F788F2E65C8";
layerId = "D34C2554-C47A-410E-8C32-63036C32E072";
name = "Color 3";
paths = (
{
closed = 1;
nodes = (
"716 3 OFFCURVE",
"864 77 OFFCURVE",
"965 196 CURVE SMOOTH",
"1066 315 OFFCURVE",
"1120 477 OFFCURVE",
"1123 656 CURVE SMOOTH",
"1123 799 LINE",
"1120 978 OFFCURVE",
"1066 1140 OFFCURVE",
"965 1259 CURVE SMOOTH",
"864 1378 OFFCURVE",
"716 1453 OFFCURVE",
"529 1456 CURVE SMOOTH",
"177 1456 LINE",
"177 0 LINE",
"529 0 LINE SMOOTH"
);
},
{
closed = 1;
nodes = (
"685 1351 OFFCURVE",
"803 1285 OFFCURVE",
"882 1184 CURVE SMOOTH",
"961 1083 OFFCURVE",
"1002 946 OFFCURVE",
"1003 802 CURVE SMOOTH",
"1003 656 LINE SMOOTH",
"1002 511 OFFCURVE",
"961 374 OFFCURVE",
"882 272 CURVE SMOOTH",
"803 170 OFFCURVE",
"685 104 OFFCURVE",
"529 101 CURVE SMOOTH",
"297 101 LINE",
"297 1354 LINE",
"529 1354 LINE SMOOTH"
);
},
{
closed = 1;
nodes = (
"0 -555 LINE",
"1229 -555 LINE",
"1229 2146 LINE",
"0 2146 LINE"
);
}
);
width = 1229;
},
{
associatedMasterId = "C0D79264-8DAD-424A-B50D-8F788F2E65C8";
layerId = "AD3359B7-F537-469C-989A-EEA35547E9F4";
name = "Color 0";
paths = (
{
closed = 1;
nodes = (
"716 3 OFFCURVE",
"864 77 OFFCURVE",
"965 196 CURVE SMOOTH",
"1066 315 OFFCURVE",
"1120 477 OFFCURVE",
"1123 656 CURVE SMOOTH",
"1123 799 LINE",
"1120 978 OFFCURVE",
"1066 1140 OFFCURVE",
"965 1259 CURVE SMOOTH",
"864 1378 OFFCURVE",
"716 1453 OFFCURVE",
"529 1456 CURVE SMOOTH",
"177 1456 LINE",
"177 0 LINE",
"529 0 LINE SMOOTH"
);
},
{
closed = 1;
nodes = (
"685 1351 OFFCURVE",
"803 1285 OFFCURVE",
"882 1184 CURVE SMOOTH",
"961 1083 OFFCURVE",
"1002 946 OFFCURVE",
"1003 802 CURVE SMOOTH",
"1003 656 LINE SMOOTH",
"1002 511 OFFCURVE",
"961 374 OFFCURVE",
"882 272 CURVE SMOOTH",
"803 170 OFFCURVE",
"685 104 OFFCURVE",
"529 101 CURVE SMOOTH",
"297 101 LINE",
"297 1354 LINE",
"529 1354 LINE SMOOTH"
);
}
);
width = 1229;
}
);
note = D;
unicode = 0044;
},
{
glyphname = E;
lastChange = "2018-03-22 14:43:45 +0000";
layers = (
{
layerId = "C0D79264-8DAD-424A-B50D-8F788F2E65C8";
paths = (
{
closed = 1;
nodes = (
"320 802 LINE",
"320 1351 LINE",
"1056 1351 LINE",
"1056 1456 LINE",
"201 1456 LINE",
"201 0 LINE",
"1060 0 LINE",
"1060 104 LINE",
"320 104 LINE",
"320 698 LINE",
"962 698 LINE",
"962 802 LINE"
);
},
{
closed = 1;
nodes = (
"0 2145 LINE",
"1 2146 LINE",
"0 2146 LINE"
);
},
{
closed = 1;
nodes = (
"1229 2145 LINE",
"1229 2146 LINE",
"1228 2146 LINE"
);
},
{
closed = 1;
nodes = (
"0 -555 LINE",
"1 -555 LINE",
"0 -554 LINE"
);
},
{
closed = 1;
nodes = (
"1228 -555 LINE",
"1229 -555 LINE",
"1229 -554 LINE"
);
}
);
width = 1229;
},
{
associatedMasterId = "C0D79264-8DAD-424A-B50D-8F788F2E65C8";
layerId = "F0874189-B73D-48D1-A5B0-897648CBAF11";
name = "Color 3";
paths = (
{
closed = 1;
nodes = (
"320 802 LINE",
"320 1351 LINE",
"1056 1351 LINE",
"1056 1456 LINE",
"201 1456 LINE",
"201 0 LINE",
"1060 0 LINE",
"1060 104 LINE",
"320 104 LINE",
"320 698 LINE",
"962 698 LINE",
"962 802 LINE"
);
},
{
closed = 1;
nodes = (
"0 -555 LINE",
"1229 -555 LINE",
"1229 2146 LINE",
"0 2146 LINE"
);
}
);
width = 1229;
},
{
associatedMasterId = "C0D79264-8DAD-424A-B50D-8F788F2E65C8";
layerId = "241818BF-C9A5-4223-9235-FCA4BE73A2AF";
name = "Color 0";
paths = (
{
closed = 1;
nodes = (
"320 802 LINE",
"320 1351 LINE",
"1056 1351 LINE",
"1056 1456 LINE",
"201 1456 LINE",
"201 0 LINE",
"1060 0 LINE",
"1060 104 LINE",
"320 104 LINE",
"320 698 LINE",
"962 698 LINE",
"962 802 LINE"
);
}
);
width = 1229;
}
);
note = E;
unicode = 0045;
},
{
glyphname = F;
lastChange = "2018-03-22 14:43:47 +0000";
layers = (
{
layerId = "C0D79264-8DAD-424A-B50D-8F788F2E65C8";
paths = (
{
closed = 1;
nodes = (
"330 785 LINE",
"330 1351 LINE",
"1071 1351 LINE",
"1071 1456 LINE",
"210 1456 LINE",
"210 0 LINE",
"330 0 LINE",
"330 680 LINE",
"974 680 LINE",
"974 785 LINE"
);
},
{
closed = 1;
nodes = (
"0 2145 LINE",
"1 2146 LINE",
"0 2146 LINE"
);
},
{
closed = 1;
nodes = (
"1229 2145 LINE",
"1229 2146 LINE",
"1228 2146 LINE"
);
},
{
closed = 1;
nodes = (
"0 -555 LINE",
"1 -555 LINE",
"0 -554 LINE"
);
},
{
closed = 1;
nodes = (
"1228 -555 LINE",
"1229 -555 LINE",
"1229 -554 LINE"
);
}
);
width = 1229;
},
{
associatedMasterId = "C0D79264-8DAD-424A-B50D-8F788F2E65C8";
layerId = "63B6A663-D273-4960-9E15-F1C214BD9614";
name = "Color 9";
paths = (
{
closed = 1;
nodes = (
"330 785 LINE",
"330 1351 LINE",
"1071 1351 LINE",
"1071 1456 LINE",
"210 1456 LINE",
"210 0 LINE",
"330 0 LINE",
"330 680 LINE",
"974 680 LINE",
"974 785 LINE"
);
},
{
closed = 1;
nodes = (
"0 -555 LINE",
"1225 -555 LINE",
"1225 2146 LINE",
"0 2146 LINE"
);
}
);
width = 1229;
},
{
associatedMasterId = "C0D79264-8DAD-424A-B50D-8F788F2E65C8";
layerId = "65516602-7E8E-4FA3-96DC-1E69F69DE34A";
name = "Color 0";
paths = (
{
closed = 1;
nodes = (
"330 785 LINE",
"330 1351 LINE",
"1071 1351 LINE",
"1071 1456 LINE",
"210 1456 LINE",
"210 0 LINE",
"330 0 LINE",
"330 680 LINE",
"974 680 LINE",
"974 785 LINE"
);
}
);
width = 1229;
}
);
note = F;
unicode = 0046;
},
{
glyphname = G;
lastChange = "2018-03-22 14:43:48 +0000";
layers = (
{
layerId = "C0D79264-8DAD-424A-B50D-8F788F2E65C8";
paths = (
{
closed = 1;
nodes = (
"636 691 LINE",
"636 587 LINE",
"981 587 LINE",
"980 211 LINE",
"941 160 OFFCURVE",
"887 128 OFFCURVE",
"827 109 CURVE SMOOTH",
"766 89 OFFCURVE",
"700 83 OFFCURVE",
"640 84 CURVE SMOOTH",
"544 85 OFFCURVE",
"469 119 OFFCURVE",
"410 173 CURVE SMOOTH",
"350 227 OFFCURVE",
"308 301 OFFCURVE",
"280 382 CURVE SMOOTH",
"252 462 OFFCURVE",
"238 550 OFFCURVE",
"237 631 CURVE",
"237 837 LINE SMOOTH",
"238 916 OFFCURVE",
"250 1001 OFFCURVE",
"276 1081 CURVE SMOOTH",
"302 1160 OFFCURVE",
"342 1232 OFFCURVE",
"399 1285 CURVE SMOOTH",
"455 1337 OFFCURVE",
"530 1371 OFFCURVE",
"623 1371 CURVE SMOOTH",
"724 1371 OFFCURVE",
"803 1336 OFFCURVE",
"862 1279 CURVE SMOOTH",
"921 1222 OFFCURVE",
"958 1139 OFFCURVE",
"977 1046 CURVE",
"1095 1046 LINE",
"1082 1174 OFFCURVE",
"1029 1281 OFFCURVE",
"946 1357 CURVE SMOOTH",
"863 1432 OFFCURVE",
"751 1476 OFFCURVE",
"622 1476 CURVE SMOOTH",
"506 1476 OFFCURVE",
"413 1438 OFFCURVE",
"338 1377 CURVE SMOOTH",
"263 1316 OFFCURVE",
"209 1232 OFFCURVE",
"173 1137 CURVE SMOOTH",
"136 1041 OFFCURVE",
"118 936 OFFCURVE",
"117 835 CURVE SMOOTH",
"117 631 LINE SMOOTH",
"118 527 OFFCURVE",
"139 420 OFFCURVE",
"177 324 CURVE SMOOTH",
"215 228 OFFCURVE",
"272 143 OFFCURVE",
"349 81 CURVE SMOOTH",
"426 19 OFFCURVE",
"523 -19 OFFCURVE",
"639 -20 CURVE SMOOTH",
"727 -20 OFFCURVE",
"814 -7 OFFCURVE",
"892 25 CURVE SMOOTH",
"970 56 OFFCURVE",
"1040 105 OFFCURVE",
"1097 173 CURVE",
"1095 691 LINE"
);
},
{
closed = 1;
nodes = (
"0 2145 LINE",
"1 2146 LINE",
"0 2146 LINE"
);
},
{
closed = 1;
nodes = (
"1229 2145 LINE",
"1229 2146 LINE",
"1228 2146 LINE"
);
},
{
closed = 1;
nodes = (
"0 -555 LINE",
"1 -555 LINE",
"0 -554 LINE"
);
},
{
closed = 1;
nodes = (
"1228 -555 LINE",
"1229 -555 LINE",
"1229 -554 LINE"
);
}
);
width = 1229;
},
{
associatedMasterId = "C0D79264-8DAD-424A-B50D-8F788F2E65C8";
layerId = "3718DEAC-C9D7-4EA1-A5B7-25978A189AC6";
name = "Color 5";
paths = (
{
closed = 1;
nodes = (
"636 691 LINE",
"636 587 LINE",
"981 587 LINE",
"980 211 LINE",
"941 160 OFFCURVE",
"887 128 OFFCURVE",
"827 109 CURVE SMOOTH",
"766 89 OFFCURVE",
"700 83 OFFCURVE",
"640 84 CURVE SMOOTH",
"544 85 OFFCURVE",
"469 119 OFFCURVE",
"410 173 CURVE SMOOTH",
"350 227 OFFCURVE",
"308 301 OFFCURVE",
"280 382 CURVE SMOOTH",
"252 462 OFFCURVE",
"238 550 OFFCURVE",
"237 631 CURVE",
"237 837 LINE SMOOTH",
"238 916 OFFCURVE",
"250 1001 OFFCURVE",
"276 1081 CURVE SMOOTH",
"302 1160 OFFCURVE",
"342 1232 OFFCURVE",
"399 1285 CURVE SMOOTH",
"455 1337 OFFCURVE",
"530 1371 OFFCURVE",
"623 1371 CURVE SMOOTH",
"724 1371 OFFCURVE",
"803 1336 OFFCURVE",
"862 1279 CURVE SMOOTH",
"921 1222 OFFCURVE",
"958 1139 OFFCURVE",
"977 1046 CURVE",
"1095 1046 LINE",
"1082 1174 OFFCURVE",
"1029 1281 OFFCURVE",
"946 1357 CURVE SMOOTH",
"863 1432 OFFCURVE",
"751 1476 OFFCURVE",
"622 1476 CURVE SMOOTH",
"506 1476 OFFCURVE",
"413 1438 OFFCURVE",
"338 1377 CURVE SMOOTH",
"263 1316 OFFCURVE",
"209 1232 OFFCURVE",
"173 1137 CURVE SMOOTH",
"136 1041 OFFCURVE",
"118 936 OFFCURVE",
"117 835 CURVE SMOOTH",
"117 631 LINE SMOOTH",
"118 527 OFFCURVE",
"139 420 OFFCURVE",
"177 324 CURVE SMOOTH",
"215 228 OFFCURVE",
"272 143 OFFCURVE",
"349 81 CURVE SMOOTH",
"426 19 OFFCURVE",
"523 -19 OFFCURVE",
"639 -20 CURVE SMOOTH",
"727 -20 OFFCURVE",
"814 -7 OFFCURVE",
"892 25 CURVE SMOOTH",
"970 56 OFFCURVE",
"1040 105 OFFCURVE",
"1097 173 CURVE",
"1095 691 LINE"
);
},
{
closed = 1;
nodes = (
"0 -555 LINE",
"1229 -555 LINE",
"1229 2146 LINE",
"0 2146 LINE"
);
}
);
width = 1229;
},
{
associatedMasterId = "C0D79264-8DAD-424A-B50D-8F788F2E65C8";
layerId = "DD2C3D61-EE77-4DC6-A0B9-7B7347C33BF9";
name = "Color 0";
paths = (
{
closed = 1;
nodes = (
"636 691 LINE",
"636 587 LINE",
"981 587 LINE",
"980 211 LINE",
"941 160 OFFCURVE",
"887 128 OFFCURVE",
"827 109 CURVE SMOOTH",
"766 89 OFFCURVE",
"700 83 OFFCURVE",
"640 84 CURVE SMOOTH",
"544 85 OFFCURVE",
"469 119 OFFCURVE",
"410 173 CURVE SMOOTH",
"350 227 OFFCURVE",
"308 301 OFFCURVE",
"280 382 CURVE SMOOTH",
"252 462 OFFCURVE",
"238 550 OFFCURVE",
"237 631 CURVE",
"237 837 LINE SMOOTH",
"238 916 OFFCURVE",
"250 1001 OFFCURVE",
"276 1081 CURVE SMOOTH",
"302 1160 OFFCURVE",
"342 1232 OFFCURVE",
"399 1285 CURVE SMOOTH",
"455 1337 OFFCURVE",
"530 1371 OFFCURVE",
"623 1371 CURVE SMOOTH",
"724 1371 OFFCURVE",
"803 1336 OFFCURVE",
"862 1279 CURVE SMOOTH",
"921 1222 OFFCURVE",
"958 1139 OFFCURVE",
"977 1046 CURVE",
"1095 1046 LINE",
"1082 1174 OFFCURVE",
"1029 1281 OFFCURVE",
"946 1357 CURVE SMOOTH",
"863 1432 OFFCURVE",
"751 1476 OFFCURVE",
"622 1476 CURVE SMOOTH",
"506 1476 OFFCURVE",
"413 1438 OFFCURVE",
"338 1377 CURVE SMOOTH",
"263 1316 OFFCURVE",
"209 1232 OFFCURVE",
"173 1137 CURVE SMOOTH",
"136 1041 OFFCURVE",
"118 936 OFFCURVE",
"117 835 CURVE SMOOTH",
"117 631 LINE SMOOTH",
"118 527 OFFCURVE",
"139 420 OFFCURVE",
"177 324 CURVE SMOOTH",
"215 228 OFFCURVE",
"272 143 OFFCURVE",
"349 81 CURVE SMOOTH",
"426 19 OFFCURVE",
"523 -19 OFFCURVE",
"639 -20 CURVE SMOOTH",
"727 -20 OFFCURVE",
"814 -7 OFFCURVE",
"892 25 CURVE SMOOTH",
"970 56 OFFCURVE",
"1040 105 OFFCURVE",
"1097 173 CURVE",
"1095 691 LINE"
);
}
);
width = 1229;
}
);
note = G;
unicode = 0047;
},
{
glyphname = H;
lastChange = "2018-03-22 14:43:49 +0000";
layers = (
{
layerId = "C0D79264-8DAD-424A-B50D-8F788F2E65C8";
paths = (
{
closed = 1;
nodes = (
"956 1456 LINE",
"956 802 LINE",
"272 802 LINE",
"272 1456 LINE",
"159 1456 LINE",
"159 0 LINE",
"272 0 LINE",
"272 698 LINE",
"956 698 LINE",
"956 0 LINE",
"1069 0 LINE",
"1069 1456 LINE"
);
},
{
closed = 1;
nodes = (
"0 2145 LINE",
"1 2146 LINE",
"0 2146 LINE"
);
},
{
closed = 1;
nodes = (
"1229 2145 LINE",
"1229 2146 LINE",
"1228 2146 LINE"
);
},
{
closed = 1;
nodes = (
"0 -555 LINE",
"1 -555 LINE",
"0 -554 LINE"
);
},
{
closed = 1;
nodes = (
"1228 -555 LINE",
"1229 -555 LINE",
"1229 -554 LINE"
);
}
);
width = 1229;
},
{
associatedMasterId = "C0D79264-8DAD-424A-B50D-8F788F2E65C8";
layerId = "87C0A3BB-506C-4D61-8C63-6CB04E48E016";
name = "Color 6";
paths = (
{
closed = 1;
nodes = (
"956 1456 LINE",
"956 802 LINE",
"272 802 LINE",
"272 1456 LINE",
"159 1456 LINE",
"159 0 LINE",
"272 0 LINE",
"272 698 LINE",
"956 698 LINE",
"956 0 LINE",
"1069 0 LINE",
"1069 1456 LINE"
);
},
{
closed = 1;
nodes = (
"0 -555 LINE",
"1229 -555 LINE",
"1229 2146 LINE",
"0 2146 LINE"
);
}
);
width = 1229;
},
{
associatedMasterId = "C0D79264-8DAD-424A-B50D-8F788F2E65C8";
layerId = "EAAA46C3-4B0E-4AEC-992B-D39984BA46D1";
name = "Color 0";
paths = (
{
closed = 1;
nodes = (
"956 1456 LINE",
"956 802 LINE",
"272 802 LINE",
"272 1456 LINE",
"159 1456 LINE",
"159 0 LINE",
"272 0 LINE",
"272 698 LINE",
"956 698 LINE",
"956 0 LINE",
"1069 0 LINE",
"1069 1456 LINE"
);
}
);
width = 1229;
}
);
note = H;
unicode = 0048;
},
{
glyphname = I;
lastChange = "2018-03-22 14:43:51 +0000";
layers = (
{
layerId = "C0D79264-8DAD-424A-B50D-8F788F2E65C8";
paths = (
{
closed = 1;
nodes = (
"547 1348 LINE",
"547 106 LINE",
"193 106 LINE",
"193 0 LINE",
"1036 0 LINE",
"1036 106 LINE",
"671 106 LINE",
"671 1348 LINE",
"1036 1348 LINE",
"1036 1456 LINE",
"193 1456 LINE",
"193 1348 LINE"
);
},
{
closed = 1;
nodes = (
"0 2145 LINE",
"1 2146 LINE",
"0 2146 LINE"
);
},
{
closed = 1;
nodes = (
"1229 2145 LINE",
"1229 2146 LINE",
"1228 2146 LINE"
);
},
{
closed = 1;
nodes = (
"0 -555 LINE",
"1 -555 LINE",
"0 -554 LINE"
);
},
{
closed = 1;
nodes = (
"1228 -555 LINE",
"1229 -555 LINE",
"1229 -554 LINE"
);
}
);
width = 1229;
},
{
associatedMasterId = "C0D79264-8DAD-424A-B50D-8F788F2E65C8";
layerId = "D42A92F5-782A-40C1-B3C2-CCA79117CF2D";
name = "Color 14";
paths = (
{
closed = 1;
nodes = (
"547 1348 LINE",
"547 106 LINE",
"193 106 LINE",
"193 0 LINE",
"1036 0 LINE",
"1036 106 LINE",
"671 106 LINE",
"671 1348 LINE",
"1036 1348 LINE",
"1036 1456 LINE",
"193 1456 LINE",
"193 1348 LINE"
);
},
{
closed = 1;
nodes = (
"0 -555 LINE",
"1229 -555 LINE",
"1229 2146 LINE",
"0 2146 LINE"
);
}
);
width = 1229;
},
{
associatedMasterId = "C0D79264-8DAD-424A-B50D-8F788F2E65C8";
layerId = "3AC43BB5-FA8F-4319-9C00-EA965F9371FB";
name = "Color 0";
paths = (
{
closed = 1;
nodes = (
"547 1348 LINE",
"547 106 LINE",
"193 106 LINE",
"193 0 LINE",
"1036 0 LINE",
"1036 106 LINE",
"671 106 LINE",
"671 1348 LINE",
"1036 1348 LINE",
"1036 1456 LINE",
"193 1456 LINE",
"193 1348 LINE"
);
}
);
width = 1229;
}
);
note = I;
unicode = 0049;
},
{
glyphname = J;
lastChange = "2018-03-20 15:04:27 +0000";
layers = (
{
layerId = "C0D79264-8DAD-424A-B50D-8F788F2E65C8";
paths = (
{
closed = 1;
nodes = (
"899 346 OFFCURVE",
"868 256 OFFCURVE",
"810 191 CURVE SMOOTH",
"752 126 OFFCURVE",
"669 84 OFFCURVE",
"568 84 CURVE SMOOTH",
"468 84 OFFCURVE",
"388 117 OFFCURVE",
"330 174 CURVE SMOOTH",
"272 231 OFFCURVE",
"237 314 OFFCURVE",
"233 410 CURVE",
"111 410 LINE",
"120 279 OFFCURVE",
"168 173 OFFCURVE",
"247 98 CURVE SMOOTH",
"326 22 OFFCURVE",
"436 -20 OFFCURVE",
"568 -20 CURVE SMOOTH",
"700 -20 OFFCURVE",
"813 31 OFFCURVE",
"894 114 CURVE SMOOTH",
"974 197 OFFCURVE",
"1021 311 OFFCURVE",
"1024 442 CURVE SMOOTH",
"1024 1456 LINE",
"902 1456 LINE",
"902 442 LINE SMOOTH"
);
}
);
width = 1229;
}
);
note = J;
unicode = 004A;
},
{
glyphname = K;
lastChange = "2018-03-22 14:43:53 +0000";
layers = (
{
layerId = "C0D79264-8DAD-424A-B50D-8F788F2E65C8";
paths = (
{
closed = 1;
nodes = (
"1181 0 LINE",
"589 809 LINE",
"1141 1456 LINE",
"992 1456 LINE",
"500 883 LINE",
"321 677 LINE",
"321 1456 LINE",
"200 1456 LINE",
"200 0 LINE",
"321 0 LINE",
"321 522 LINE",
"508 721 LINE",
"1035 0 LINE"
);
},
{
closed = 1;
nodes = (
"0 2145 LINE",
"1 2146 LINE",
"0 2146 LINE"
);
},
{
closed = 1;
nodes = (
"1229 2145 LINE",
"1229 2146 LINE",
"1228 2146 LINE"
);
},
{
closed = 1;
nodes = (
"0 -555 LINE",
"1 -555 LINE",
"0 -554 LINE"
);
},
{
closed = 1;
nodes = (
"1228 -555 LINE",
"1229 -555 LINE",
"1229 -554 LINE"
);
}
);
width = 1229;
},
{
associatedMasterId = "C0D79264-8DAD-424A-B50D-8F788F2E65C8";
layerId = "12B84581-028E-4F03-8EFE-CB1F492D8AEC";
name = "Color 2";
paths = (
{
closed = 1;
nodes = (
"1181 0 LINE",
"589 809 LINE",
"1141 1456 LINE",
"992 1456 LINE",
"500 883 LINE",
"321 677 LINE",
"321 1456 LINE",
"200 1456 LINE",
"200 0 LINE",
"321 0 LINE",
"321 522 LINE",
"508 721 LINE",
"1035 0 LINE"
);
},
{
closed = 1;
nodes = (
"0 -555 LINE",
"1229 -555 LINE",
"1229 2146 LINE",
"0 2146 LINE"
);
}
);
width = 1229;
},
{
associatedMasterId = "C0D79264-8DAD-424A-B50D-8F788F2E65C8";
layerId = "9D796718-0667-447F-ADBD-8712886D67AD";
name = "Color 0";
paths = (
{
closed = 1;
nodes = (
"1181 0 LINE",
"589 809 LINE",
"1141 1456 LINE",
"992 1456 LINE",
"500 883 LINE",
"321 677 LINE",
"321 1456 LINE",
"200 1456 LINE",
"200 0 LINE",
"321 0 LINE",
"321 522 LINE",
"508 721 LINE",
"1035 0 LINE"
);
}
);
width = 1229;
}
);
note = K;
unicode = 004B;
},
{
glyphname = L;
lastChange = "2018-03-22 14:43:54 +0000";
layers = (
{
layerId = "C0D79264-8DAD-424A-B50D-8F788F2E65C8";
paths = (
{
closed = 1;
nodes = (
"220 1456 LINE",
"220 0 LINE",
"1081 0 LINE",
"1081 104 LINE",
"340 104 LINE",
"340 1456 LINE"
);
},
{
closed = 1;
nodes = (
"0 2145 LINE",
"1 2146 LINE",
"0 2146 LINE"
);
},
{
closed = 1;
nodes = (
"1229 2145 LINE",
"1229 2146 LINE",
"1228 2146 LINE"
);
},
{
closed = 1;
nodes = (
"0 -555 LINE",
"1 -555 LINE",
"0 -554 LINE"
);
},
{
closed = 1;
nodes = (
"1228 -555 LINE",
"1229 -555 LINE",
"1229 -554 LINE"
);
}
);
width = 1229;
},
{
associatedMasterId = "C0D79264-8DAD-424A-B50D-8F788F2E65C8";
layerId = "9945C543-A486-469F-8138-95EC96F5991C";
name = "Color 7";
paths = (
{
closed = 1;
nodes = (
"220 1456 LINE",
"220 0 LINE",
"1081 0 LINE",
"1081 104 LINE",
"340 104 LINE",
"340 1456 LINE"
);
},
{
closed = 1;
nodes = (
"0 -555 LINE",
"1229 -555 LINE",
"1229 2146 LINE",
"0 2146 LINE"
);
}
);
width = 1229;
},
{
associatedMasterId = "C0D79264-8DAD-424A-B50D-8F788F2E65C8";
layerId = "233B8FBF-FFE9-44BE-A927-2DA6E0E7A687";
name = "Color 0";
paths = (
{
closed = 1;
nodes = (
"220 1456 LINE",
"220 0 LINE",
"1081 0 LINE",
"1081 104 LINE",
"340 104 LINE",
"340 1456 LINE"
);
}
);
width = 1229;
}
);
note = L;
unicode = 004C;
},
{
glyphname = M;
lastChange = "2018-03-22 14:43:56 +0000";
layers = (
{
layerId = "C0D79264-8DAD-424A-B50D-8F788F2E65C8";
paths = (
{
closed = 1;
nodes = (
"167 0 LINE",
"284 0 LINE",
"284 645 LINE",
"274 1282 LINE",
"574 438 LINE",
"652 438 LINE",
"975 1296 LINE",
"966 645 LINE",
"966 0 LINE",
"1083 0 LINE",
"1083 1456 LINE",
"926 1456 LINE",
"614 632 LINE",
"321 1456 LINE",
"167 1456 LINE"
);
},
{
closed = 1;
nodes = (
"0 2145 LINE",
"1 2146 LINE",
"0 2146 LINE"
);
},
{
closed = 1;
nodes = (
"1229 2145 LINE",
"1229 2146 LINE",
"1228 2146 LINE"
);
},
{
closed = 1;
nodes = (
"0 -555 LINE",
"1 -555 LINE",
"0 -554 LINE"
);
},
{
closed = 1;
nodes = (
"1228 -555 LINE",
"1229 -555 LINE",
"1229 -554 LINE"
);
}
);
width = 1229;
},
{
associatedMasterId = "C0D79264-8DAD-424A-B50D-8F788F2E65C8";
layerId = "D0EEE290-B8B8-4A35-BCFF-45D3E6717934";
name = "Color 8";
paths = (
{
closed = 1;
nodes = (
"167 0 LINE",
"284 0 LINE",
"284 645 LINE",
"274 1282 LINE",
"574 438 LINE",
"652 438 LINE",
"975 1296 LINE",
"966 645 LINE",
"966 0 LINE",
"1083 0 LINE",
"1083 1456 LINE",
"926 1456 LINE",
"614 632 LINE",
"321 1456 LINE",
"167 1456 LINE"
);
},
{
closed = 1;
nodes = (
"0 -555 LINE",
"1229 -555 LINE",
"1229 2146 LINE",
"0 2146 LINE"
);
}
);
width = 1229;
},
{
associatedMasterId = "C0D79264-8DAD-424A-B50D-8F788F2E65C8";
layerId = "A8DA7517-C752-4A86-B051-94EB8FF62F94";
name = "Color 0";
paths = (
{
closed = 1;
nodes = (
"167 0 LINE",
"284 0 LINE",
"284 645 LINE",
"274 1282 LINE",
"574 438 LINE",
"652 438 LINE",
"975 1296 LINE",
"966 645 LINE",
"966 0 LINE",
"1083 0 LINE",
"1083 1456 LINE",
"926 1456 LINE",
"614 632 LINE",
"321 1456 LINE",
"167 1456 LINE"
);
}
);
width = 1229;
}
);
note = M;
unicode = 004D;
},
{
glyphname = N;
lastChange = "2018-03-22 14:43:57 +0000";
layers = (
{
layerId = "C0D79264-8DAD-424A-B50D-8F788F2E65C8";
paths = (
{
closed = 1;
nodes = (
"949 1456 LINE",
"948 229 LINE",
"280 1456 LINE",
"161 1456 LINE",
"161 0 LINE",
"280 0 LINE",
"281 1229 LINE",
"949 0 LINE",
"1068 0 LINE",
"1068 1456 LINE"
);
},
{
closed = 1;
nodes = (
"0 2145 LINE",
"1 2146 LINE",
"0 2146 LINE"
);
},
{
closed = 1;
nodes = (
"1229 2145 LINE",
"1229 2146 LINE",
"1228 2146 LINE"
);
},
{
closed = 1;
nodes = (
"0 -555 LINE",
"1 -555 LINE",
"0 -554 LINE"
);
},
{
closed = 1;
nodes = (
"1228 -555 LINE",
"1229 -555 LINE",
"1229 -554 LINE"
);
}
);
width = 1229;
},
{
associatedMasterId = "C0D79264-8DAD-424A-B50D-8F788F2E65C8";
layerId = "938D1619-E7C2-4CF9-A33B-311607105500";
name = "Color 3";
paths = (
{
closed = 1;
nodes = (
"949 1456 LINE",
"948 229 LINE",
"280 1456 LINE",
"161 1456 LINE",
"161 0 LINE",
"280 0 LINE",
"281 1229 LINE",
"949 0 LINE",
"1068 0 LINE",
"1068 1456 LINE"
);
},
{
closed = 1;
nodes = (
"0 -555 LINE",
"1229 -555 LINE",
"1229 2146 LINE",
"0 2146 LINE"
);
}
);
width = 1229;
},
{
associatedMasterId = "C0D79264-8DAD-424A-B50D-8F788F2E65C8";
layerId = "3A5855DF-F70C-41BC-ABA3-1DC13329348C";
name = "Color 0";
paths = (
{
closed = 1;
nodes = (
"949 1456 LINE",
"948 229 LINE",
"280 1456 LINE",
"161 1456 LINE",
"161 0 LINE",
"280 0 LINE",
"281 1229 LINE",
"949 0 LINE",
"1068 0 LINE",
"1068 1456 LINE"
);
}
);
width = 1229;
}
);
note = N;
unicode = 004E;
},
{
glyphname = O;
lastChange = "2018-03-20 15:04:27 +0000";
layers = (
{
layerId = "C0D79264-8DAD-424A-B50D-8F788F2E65C8";
paths = (
{
closed = 1;
nodes = (
"1102 923 OFFCURVE",
"1087 1029 OFFCURVE",
"1053 1126 CURVE SMOOTH",
"1019 1222 OFFCURVE",
"967 1310 OFFCURVE",
"895 1374 CURVE SMOOTH",
"822 1437 OFFCURVE",
"729 1476 OFFCURVE",
"613 1476 CURVE SMOOTH",
"497 1476 OFFCURVE",
"405 1437 OFFCURVE",
"333 1373 CURVE SMOOTH",
"261 1309 OFFCURVE",
"208 1221 OFFCURVE",
"175 1125 CURVE SMOOTH",
"142 1028 OFFCURVE",
"125 922 OFFCURVE",
"124 823 CURVE SMOOTH",
"124 631 LINE SMOOTH",
"125 532 OFFCURVE",
"142 427 OFFCURVE",
"176 331 CURVE SMOOTH",
"210 234 OFFCURVE",
"262 146 OFFCURVE",
"335 83 CURVE SMOOTH",
"407 19 OFFCURVE",
"500 -20 OFFCURVE",
"615 -20 CURVE SMOOTH",
"731 -20 OFFCURVE",
"824 19 OFFCURVE",
"896 83 CURVE SMOOTH",
"967 146 OFFCURVE",
"1019 233 OFFCURVE",
"1053 330 CURVE SMOOTH",
"1087 426 OFFCURVE",
"1102 532 OFFCURVE",
"1103 631 CURVE SMOOTH",
"1103 823 LINE"
);
},
{
closed = 1;
nodes = (
"984 554 OFFCURVE",
"975 468 OFFCURVE",
"952 388 CURVE SMOOTH",
"928 307 OFFCURVE",
"891 232 OFFCURVE",
"836 177 CURVE SMOOTH",
"781 122 OFFCURVE",
"710 87 OFFCURVE",
"615 87 CURVE SMOOTH",
"522 87 OFFCURVE",
"449 122 OFFCURVE",
"394 177 CURVE SMOOTH",
"339 232 OFFCURVE",
"302 307 OFFCURVE",
"278 388 CURVE SMOOTH",
"254 468 OFFCURVE",
"243 554 OFFCURVE",
"242 631 CURVE",
"242 825 LINE SMOOTH",
"243 901 OFFCURVE",
"253 988 OFFCURVE",
"277 1068 CURVE SMOOTH",
"301 1148 OFFCURVE",
"338 1223 OFFCURVE",
"393 1278 CURVE SMOOTH",
"448 1333 OFFCURVE",
"520 1368 OFFCURVE",
"613 1368 CURVE SMOOTH",
"706 1368 OFFCURVE",
"779 1334 OFFCURVE",
"834 1279 CURVE SMOOTH",
"889 1224 OFFCURVE",
"926 1149 OFFCURVE",
"950 1069 CURVE SMOOTH",
"974 989 OFFCURVE",
"984 902 OFFCURVE",
"985 825 CURVE SMOOTH",
"985 631 LINE SMOOTH"
);
}
);
width = 1229;
}
);
note = O;
unicode = 004F;
},
{
glyphname = P;
lastChange = "2018-03-22 14:43:58 +0000";
layers = (
{
layerId = "C0D79264-8DAD-424A-B50D-8F788F2E65C8";
paths = (
{
closed = 1;
nodes = (
"801 601 OFFCURVE",
"916 641 OFFCURVE",
"1000 714 CURVE SMOOTH",
"1083 786 OFFCURVE",
"1134 892 OFFCURVE",
"1134 1025 CURVE SMOOTH",
"1134 1158 OFFCURVE",
"1083 1265 OFFCURVE",
"1000 1339 CURVE SMOOTH",
"916 1413 OFFCURVE",
"802 1453 OFFCURVE",
"674 1456 CURVE SMOOTH",
"216 1456 LINE",
"216 0 LINE",
"336 0 LINE",
"336 600 LINE",
"674 600 LINE SMOOTH"
);
},
{
closed = 1;
nodes = (
"674 1354 LINE SMOOTH",
"771 1351 OFFCURVE",
"856 1319 OFFCURVE",
"917 1263 CURVE SMOOTH",
"978 1206 OFFCURVE",
"1015 1123 OFFCURVE",
"1015 1023 CURVE SMOOTH",
"1015 923 OFFCURVE",
"977 844 OFFCURVE",
"916 789 CURVE SMOOTH",
"855 734 OFFCURVE",
"770 702 OFFCURVE",
"674 701 CURVE SMOOTH",
"336 701 LINE",
"336 1354 LINE"
);
},
{
closed = 1;
nodes = (
"0 2145 LINE",
"1 2146 LINE",
"0 2146 LINE"
);
},
{
closed = 1;
nodes = (
"1229 2145 LINE",
"1229 2146 LINE",
"1228 2146 LINE"
);
},
{
closed = 1;
nodes = (
"0 -555 LINE",
"1 -555 LINE",
"0 -554 LINE"
);
},
{
closed = 1;
nodes = (
"1228 -555 LINE",
"1229 -555 LINE",
"1229 -554 LINE"
);
}
);
width = 1229;
},
{
associatedMasterId = "C0D79264-8DAD-424A-B50D-8F788F2E65C8";
layerId = "3C495DCC-2D6D-4773-85C3-36A92B4C3F28";
name = "Color 10";
paths = (
{
closed = 1;
nodes = (
"801 601 OFFCURVE",
"916 641 OFFCURVE",
"1000 714 CURVE SMOOTH",
"1083 786 OFFCURVE",
"1134 892 OFFCURVE",
"1134 1025 CURVE SMOOTH",
"1134 1158 OFFCURVE",
"1083 1265 OFFCURVE",
"1000 1339 CURVE SMOOTH",
"916 1413 OFFCURVE",
"802 1453 OFFCURVE",
"674 1456 CURVE SMOOTH",
"216 1456 LINE",
"216 0 LINE",
"336 0 LINE",
"336 600 LINE",
"674 600 LINE SMOOTH"
);
},
{
closed = 1;
nodes = (
"674 1354 LINE SMOOTH",
"771 1351 OFFCURVE",
"856 1319 OFFCURVE",
"917 1263 CURVE SMOOTH",
"978 1206 OFFCURVE",
"1015 1123 OFFCURVE",
"1015 1023 CURVE SMOOTH",
"1015 923 OFFCURVE",
"977 844 OFFCURVE",
"916 789 CURVE SMOOTH",
"855 734 OFFCURVE",
"770 702 OFFCURVE",
"674 701 CURVE SMOOTH",
"336 701 LINE",
"336 1354 LINE"
);
},
{
closed = 1;
nodes = (
"0 -555 LINE",
"1229 -555 LINE",
"1229 2146 LINE",
"0 2146 LINE"
);
}
);
width = 1229;
},
{
associatedMasterId = "C0D79264-8DAD-424A-B50D-8F788F2E65C8";
layerId = "DA16FF16-C82E-40D9-B7AF-CD2C9CC91F02";
name = "Color 0";
paths = (
{
closed = 1;
nodes = (
"801 601 OFFCURVE",
"916 641 OFFCURVE",
"1000 714 CURVE SMOOTH",
"1083 786 OFFCURVE",
"1134 892 OFFCURVE",
"1134 1025 CURVE SMOOTH",
"1134 1158 OFFCURVE",
"1083 1265 OFFCURVE",
"1000 1339 CURVE SMOOTH",
"916 1413 OFFCURVE",
"802 1453 OFFCURVE",
"674 1456 CURVE SMOOTH",
"216 1456 LINE",
"216 0 LINE",
"336 0 LINE",
"336 600 LINE",
"674 600 LINE SMOOTH"
);
},
{
closed = 1;
nodes = (
"674 1354 LINE SMOOTH",
"771 1351 OFFCURVE",
"856 1319 OFFCURVE",
"917 1263 CURVE SMOOTH",
"978 1206 OFFCURVE",
"1015 1123 OFFCURVE",
"1015 1023 CURVE SMOOTH",
"1015 923 OFFCURVE",
"977 844 OFFCURVE",
"916 789 CURVE SMOOTH",
"855 734 OFFCURVE",
"770 702 OFFCURVE",
"674 701 CURVE SMOOTH",
"336 701 LINE",
"336 1354 LINE"
);
}
);
width = 1229;
}
);
note = P;
unicode = 0050;
},
{
glyphname = Q;
lastChange = "2018-03-22 14:44:00 +0000";
layers = (
{
layerId = "C0D79264-8DAD-424A-B50D-8F788F2E65C8";
paths = (
{
closed = 1;
nodes = (
"1126 917 OFFCURVE",
"1109 1026 OFFCURVE",
"1073 1124 CURVE SMOOTH",
"1036 1222 OFFCURVE",
"982 1310 OFFCURVE",
"907 1374 CURVE SMOOTH",
"831 1437 OFFCURVE",
"735 1476 OFFCURVE",
"616 1476 CURVE SMOOTH",
"497 1476 OFFCURVE",
"402 1437 OFFCURVE",
"327 1373 CURVE SMOOTH",
"251 1309 OFFCURVE",
"196 1222 OFFCURVE",
"160 1123 CURVE SMOOTH",
"124 1024 OFFCURVE",
"107 917 OFFCURVE",
"106 814 CURVE SMOOTH",
"106 640 LINE SMOOTH",
"107 537 OFFCURVE",
"125 429 OFFCURVE",
"161 332 CURVE SMOOTH",
"197 235 OFFCURVE",
"252 146 OFFCURVE",
"328 83 CURVE SMOOTH",
"403 19 OFFCURVE",
"499 -20 OFFCURVE",
"618 -20 CURVE SMOOTH",
"673 -20 OFFCURVE",
"721 -12 OFFCURVE",
"765 3 CURVE",
"1041 -254 LINE",
"1124 -178 LINE",
"874 57 LINE",
"961 117 OFFCURVE",
"1024 207 OFFCURVE",
"1065 311 CURVE SMOOTH",
"1106 414 OFFCURVE",
"1126 529 OFFCURVE",
"1127 640 CURVE SMOOTH",
"1127 814 LINE"
);
},
{
closed = 1;
nodes = (
"1007 559 OFFCURVE",
"996 471 OFFCURVE",
"971 389 CURVE SMOOTH",
"946 307 OFFCURVE",
"908 231 OFFCURVE",
"850 176 CURVE SMOOTH",
"792 121 OFFCURVE",
"715 87 OFFCURVE",
"618 87 CURVE SMOOTH",
"521 87 OFFCURVE",
"444 121 OFFCURVE",
"387 177 CURVE SMOOTH",
"330 232 OFFCURVE",
"290 307 OFFCURVE",
"264 389 CURVE SMOOTH",
"238 471 OFFCURVE",
"226 559 OFFCURVE",
"225 640 CURVE",
"225 816 LINE SMOOTH",
"226 897 OFFCURVE",
"238 986 OFFCURVE",
"264 1067 CURVE SMOOTH",
"290 1148 OFFCURVE",
"329 1224 OFFCURVE",
"387 1279 CURVE SMOOTH",
"445 1334 OFFCURVE",
"519 1368 OFFCURVE",
"616 1368 CURVE SMOOTH",
"713 1368 OFFCURVE",
"790 1334 OFFCURVE",
"848 1279 CURVE SMOOTH",
"906 1224 OFFCURVE",
"945 1149 OFFCURVE",
"971 1068 CURVE SMOOTH",
"997 987 OFFCURVE",
"1007 897 OFFCURVE",
"1008 816 CURVE SMOOTH",
"1008 640 LINE SMOOTH"
);
},
{
closed = 1;
nodes = (
"0 2145 LINE",
"1 2146 LINE",
"0 2146 LINE"
);
},
{
closed = 1;
nodes = (
"1229 2145 LINE",
"1229 2146 LINE",
"1228 2146 LINE"
);
},
{
closed = 1;
nodes = (
"0 -555 LINE",
"1 -555 LINE",
"0 -554 LINE"
);
},
{
closed = 1;
nodes = (
"1228 -555 LINE",
"1229 -555 LINE",
"1229 -554 LINE"
);
}
);
width = 1229;
},
{
associatedMasterId = "C0D79264-8DAD-424A-B50D-8F788F2E65C8";
layerId = "47B1B567-CDB0-4A40-8670-1F10D5FB0AFC";
name = "Color 3";
paths = (
{
closed = 1;
nodes = (
"1126 917 OFFCURVE",
"1109 1026 OFFCURVE",
"1073 1124 CURVE SMOOTH",
"1036 1222 OFFCURVE",
"982 1310 OFFCURVE",
"907 1374 CURVE SMOOTH",
"831 1437 OFFCURVE",
"735 1476 OFFCURVE",
"616 1476 CURVE SMOOTH",
"497 1476 OFFCURVE",
"402 1437 OFFCURVE",
"327 1373 CURVE SMOOTH",
"251 1309 OFFCURVE",
"196 1222 OFFCURVE",
"160 1123 CURVE SMOOTH",
"124 1024 OFFCURVE",
"107 917 OFFCURVE",
"106 814 CURVE SMOOTH",
"106 640 LINE SMOOTH",
"107 537 OFFCURVE",
"125 429 OFFCURVE",
"161 332 CURVE SMOOTH",
"197 235 OFFCURVE",
"252 146 OFFCURVE",
"328 83 CURVE SMOOTH",
"403 19 OFFCURVE",
"499 -20 OFFCURVE",
"618 -20 CURVE SMOOTH",
"673 -20 OFFCURVE",
"721 -12 OFFCURVE",
"765 3 CURVE",
"1041 -254 LINE",
"1124 -178 LINE",
"874 57 LINE",
"961 117 OFFCURVE",
"1024 207 OFFCURVE",
"1065 311 CURVE SMOOTH",
"1106 414 OFFCURVE",
"1126 529 OFFCURVE",
"1127 640 CURVE SMOOTH",
"1127 814 LINE"
);
},
{
closed = 1;
nodes = (
"1007 559 OFFCURVE",
"996 471 OFFCURVE",
"971 389 CURVE SMOOTH",
"946 307 OFFCURVE",
"908 231 OFFCURVE",
"850 176 CURVE SMOOTH",
"792 121 OFFCURVE",
"715 87 OFFCURVE",
"618 87 CURVE SMOOTH",
"521 87 OFFCURVE",
"444 121 OFFCURVE",
"387 177 CURVE SMOOTH",
"330 232 OFFCURVE",
"290 307 OFFCURVE",
"264 389 CURVE SMOOTH",
"238 471 OFFCURVE",
"226 559 OFFCURVE",
"225 640 CURVE",
"225 816 LINE SMOOTH",
"226 897 OFFCURVE",
"238 986 OFFCURVE",
"264 1067 CURVE SMOOTH",
"290 1148 OFFCURVE",
"329 1224 OFFCURVE",
"387 1279 CURVE SMOOTH",
"445 1334 OFFCURVE",
"519 1368 OFFCURVE",
"616 1368 CURVE SMOOTH",
"713 1368 OFFCURVE",
"790 1334 OFFCURVE",
"848 1279 CURVE SMOOTH",
"906 1224 OFFCURVE",
"945 1149 OFFCURVE",
"971 1068 CURVE SMOOTH",
"997 987 OFFCURVE",
"1007 897 OFFCURVE",
"1008 816 CURVE SMOOTH",
"1008 640 LINE SMOOTH"
);
},
{
closed = 1;
nodes = (
"0 -555 LINE",
"1229 -555 LINE",
"1229 2146 LINE",
"0 2146 LINE"
);
}
);
width = 1229;
},
{
associatedMasterId = "C0D79264-8DAD-424A-B50D-8F788F2E65C8";
layerId = "94C4C351-FD6D-411E-AEFB-1FA685FD0B7C";
name = "Color 0";
paths = (
{
closed = 1;
nodes = (
"1126 917 OFFCURVE",
"1109 1026 OFFCURVE",
"1073 1124 CURVE SMOOTH",
"1036 1222 OFFCURVE",
"982 1310 OFFCURVE",
"907 1374 CURVE SMOOTH",
"831 1437 OFFCURVE",
"735 1476 OFFCURVE",
"616 1476 CURVE SMOOTH",
"497 1476 OFFCURVE",
"402 1437 OFFCURVE",
"327 1373 CURVE SMOOTH",
"251 1309 OFFCURVE",
"196 1222 OFFCURVE",
"160 1123 CURVE SMOOTH",
"124 1024 OFFCURVE",
"107 917 OFFCURVE",
"106 814 CURVE SMOOTH",
"106 640 LINE SMOOTH",
"107 537 OFFCURVE",
"125 429 OFFCURVE",
"161 332 CURVE SMOOTH",
"197 235 OFFCURVE",
"252 146 OFFCURVE",
"328 83 CURVE SMOOTH",
"403 19 OFFCURVE",
"499 -20 OFFCURVE",
"618 -20 CURVE SMOOTH",
"673 -20 OFFCURVE",
"721 -12 OFFCURVE",
"765 3 CURVE",
"1041 -254 LINE",
"1124 -178 LINE",
"874 57 LINE",
"961 117 OFFCURVE",
"1024 207 OFFCURVE",
"1065 311 CURVE SMOOTH",
"1106 414 OFFCURVE",
"1126 529 OFFCURVE",
"1127 640 CURVE SMOOTH",
"1127 814 LINE"
);
},
{
closed = 1;
nodes = (
"1007 559 OFFCURVE",
"996 471 OFFCURVE",
"971 389 CURVE SMOOTH",
"946 307 OFFCURVE",
"908 231 OFFCURVE",
"850 176 CURVE SMOOTH",
"792 121 OFFCURVE",
"715 87 OFFCURVE",
"618 87 CURVE SMOOTH",
"521 87 OFFCURVE",
"444 121 OFFCURVE",
"387 177 CURVE SMOOTH",
"330 232 OFFCURVE",
"290 307 OFFCURVE",
"264 389 CURVE SMOOTH",
"238 471 OFFCURVE",
"226 559 OFFCURVE",
"225 640 CURVE",
"225 816 LINE SMOOTH",
"226 897 OFFCURVE",
"238 986 OFFCURVE",
"264 1067 CURVE SMOOTH",
"290 1148 OFFCURVE",
"329 1224 OFFCURVE",
"387 1279 CURVE SMOOTH",
"445 1334 OFFCURVE",
"519 1368 OFFCURVE",
"616 1368 CURVE SMOOTH",
"713 1368 OFFCURVE",
"790 1334 OFFCURVE",
"848 1279 CURVE SMOOTH",
"906 1224 OFFCURVE",
"945 1149 OFFCURVE",
"971 1068 CURVE SMOOTH",
"997 987 OFFCURVE",
"1007 897 OFFCURVE",
"1008 816 CURVE SMOOTH",
"1008 640 LINE SMOOTH"
);
}
);
width = 1229;
}
);
note = Q;
unicode = 0051;
},
{
glyphname = R;
lastChange = "2018-03-22 14:44:01 +0000";
layers = (
{
layerId = "C0D79264-8DAD-424A-B50D-8F788F2E65C8";
paths = (
{
closed = 1;
nodes = (
"1126 0 LINE",
"1126 13 LINE",
"794 637 LINE",
"878 672 OFFCURVE",
"949 721 OFFCURVE",
"1000 786 CURVE SMOOTH",
"1051 850 OFFCURVE",
"1081 930 OFFCURVE",
"1081 1027 CURVE SMOOTH",
"1081 1163 OFFCURVE",
"1029 1269 OFFCURVE",
"945 1342 CURVE SMOOTH",
"860 1414 OFFCURVE",
"743 1453 OFFCURVE",
"615 1456 CURVE SMOOTH",
"204 1456 LINE",
"204 0 LINE",
"322 0 LINE",
"322 609 LINE",
"682 609 LINE",
"1001 0 LINE"
);
},
{
closed = 1;
nodes = (
"614 1354 LINE SMOOTH",
"711 1351 OFFCURVE",
"799 1322 OFFCURVE",
"861 1267 CURVE SMOOTH",
"923 1211 OFFCURVE",
"961 1131 OFFCURVE",
"961 1028 CURVE SMOOTH",
"961 936 OFFCURVE",
"927 857 OFFCURVE",
"869 802 CURVE SMOOTH",
"811 746 OFFCURVE",
"730 713 OFFCURVE",
"639 710 CURVE SMOOTH",
"322 710 LINE",
"322 1354 LINE"
);
},
{
closed = 1;
nodes = (
"0 2145 LINE",
"1 2146 LINE",
"0 2146 LINE"
);
},
{
closed = 1;
nodes = (
"1229 2145 LINE",
"1229 2146 LINE",
"1228 2146 LINE"
);
},
{
closed = 1;
nodes = (
"0 -555 LINE",
"1 -555 LINE",
"0 -554 LINE"
);
},
{
closed = 1;
nodes = (
"1228 -555 LINE",
"1229 -555 LINE",
"1229 -554 LINE"
);
}
);
width = 1229;
},
{
associatedMasterId = "C0D79264-8DAD-424A-B50D-8F788F2E65C8";
layerId = "BD006B16-4A58-4030-9695-287EAD6EEE53";
name = "Color 2";
paths = (
{
closed = 1;
nodes = (
"1126 0 LINE",
"1126 13 LINE",
"794 637 LINE",
"878 672 OFFCURVE",
"949 721 OFFCURVE",
"1000 786 CURVE SMOOTH",
"1051 850 OFFCURVE",
"1081 930 OFFCURVE",
"1081 1027 CURVE SMOOTH",
"1081 1163 OFFCURVE",
"1029 1269 OFFCURVE",
"945 1342 CURVE SMOOTH",
"860 1414 OFFCURVE",
"743 1453 OFFCURVE",
"615 1456 CURVE SMOOTH",
"204 1456 LINE",
"204 0 LINE",
"322 0 LINE",
"322 609 LINE",
"682 609 LINE",
"1001 0 LINE"
);
},
{
closed = 1;
nodes = (
"614 1354 LINE SMOOTH",
"711 1351 OFFCURVE",
"799 1322 OFFCURVE",
"861 1267 CURVE SMOOTH",
"923 1211 OFFCURVE",
"961 1131 OFFCURVE",
"961 1028 CURVE SMOOTH",
"961 936 OFFCURVE",
"927 857 OFFCURVE",
"869 802 CURVE SMOOTH",
"811 746 OFFCURVE",
"730 713 OFFCURVE",
"639 710 CURVE SMOOTH",
"322 710 LINE",
"322 1354 LINE"
);
},
{
closed = 1;
nodes = (
"0 -555 LINE",
"1229 -555 LINE",
"1229 2146 LINE",
"0 2146 LINE"
);
}
);
width = 1229;
},
{
associatedMasterId = "C0D79264-8DAD-424A-B50D-8F788F2E65C8";
layerId = "881A6AAF-B03F-461D-B520-F00E233A7A55";
name = "Color 0";
paths = (
{
closed = 1;
nodes = (
"1126 0 LINE",
"1126 13 LINE",
"794 637 LINE",
"878 672 OFFCURVE",
"949 721 OFFCURVE",
"1000 786 CURVE SMOOTH",
"1051 850 OFFCURVE",
"1081 930 OFFCURVE",
"1081 1027 CURVE SMOOTH",
"1081 1163 OFFCURVE",
"1029 1269 OFFCURVE",
"945 1342 CURVE SMOOTH",
"860 1414 OFFCURVE",
"743 1453 OFFCURVE",
"615 1456 CURVE SMOOTH",
"204 1456 LINE",
"204 0 LINE",
"322 0 LINE",
"322 609 LINE",
"682 609 LINE",
"1001 0 LINE"
);
},
{
closed = 1;
nodes = (
"614 1354 LINE SMOOTH",
"711 1351 OFFCURVE",
"799 1322 OFFCURVE",
"861 1267 CURVE SMOOTH",
"923 1211 OFFCURVE",
"961 1131 OFFCURVE",
"961 1028 CURVE SMOOTH",
"961 936 OFFCURVE",
"927 857 OFFCURVE",
"869 802 CURVE SMOOTH",
"811 746 OFFCURVE",
"730 713 OFFCURVE",
"639 710 CURVE SMOOTH",
"322 710 LINE",
"322 1354 LINE"
);
}
);
width = 1229;
}
);
note = R;
unicode = 0052;
},
{
glyphname = S;
lastChange = "2018-03-22 14:44:03 +0000";
layers = (
{
layerId = "C0D79264-8DAD-424A-B50D-8F788F2E65C8";
paths = (
{
closed = 1;
nodes = (
"990 262 OFFCURVE",
"946 194 OFFCURVE",
"881 150 CURVE SMOOTH",
"816 105 OFFCURVE",
"730 84 OFFCURVE",
"645 84 CURVE SMOOTH",
"542 84 OFFCURVE",
"451 112 OFFCURVE",
"383 166 CURVE SMOOTH",
"315 220 OFFCURVE",
"270 301 OFFCURVE",
"258 405 CURVE",
"137 405 LINE",
"141 269 OFFCURVE",
"205 162 OFFCURVE",
"299 90 CURVE SMOOTH",
"393 18 OFFCURVE",
"517 -20 OFFCURVE",
"645 -20 CURVE SMOOTH",
"760 -20 OFFCURVE",
"877 11 OFFCURVE",
"965 75 CURVE SMOOTH",
"1053 138 OFFCURVE",
"1114 232 OFFCURVE",
"1114 360 CURVE SMOOTH",
"1114 445 OFFCURVE",
"1088 515 OFFCURVE",
"1045 572 CURVE SMOOTH",
"1001 629 OFFCURVE",
"941 673 OFFCURVE",
"874 709 CURVE SMOOTH",
"806 745 OFFCURVE",
"733 772 OFFCURVE",
"662 793 CURVE SMOOTH",
"586 816 OFFCURVE",
"496 845 OFFCURVE",
"425 892 CURVE SMOOTH",
"354 939 OFFCURVE",
"303 1005 OFFCURVE",
"303 1102 CURVE SMOOTH",
"303 1193 OFFCURVE",
"346 1260 OFFCURVE",
"410 1305 CURVE SMOOTH",
"473 1349 OFFCURVE",
"556 1371 OFFCURVE",
"637 1371 CURVE SMOOTH",
"734 1371 OFFCURVE",
"816 1338 OFFCURVE",
"876 1282 CURVE SMOOTH",
"936 1226 OFFCURVE",
"972 1147 OFFCURVE",
"983 1052 CURVE",
"1104 1052 LINE",
"1100 1180 OFFCURVE",
"1046 1287 OFFCURVE",
"962 1360 CURVE SMOOTH",
"877 1433 OFFCURVE",
"761 1476 OFFCURVE",
"637 1476 CURVE SMOOTH",
"526 1476 OFFCURVE",
"413 1443 OFFCURVE",
"326 1379 CURVE SMOOTH",
"239 1315 OFFCURVE",
"180 1221 OFFCURVE",
"180 1100 CURVE SMOOTH",
"180 1017 OFFCURVE",
"206 951 OFFCURVE",
"250 896 CURVE SMOOTH",
"293 841 OFFCURVE",
"353 799 OFFCURVE",
"419 765 CURVE SMOOTH",
"485 731 OFFCURVE",
"556 705 OFFCURVE",
"624 684 CURVE SMOOTH",
"677 667 OFFCURVE",
"736 647 OFFCURVE",
"791 622 CURVE SMOOTH",
"846 597 OFFCURVE",
"895 565 OFFCURVE",
"932 522 CURVE SMOOTH",
"968 479 OFFCURVE",
"990 426 OFFCURVE",
"990 358 CURVE SMOOTH"
);
},
{
closed = 1;
nodes = (
"0 2145 LINE",
"1 2146 LINE",
"0 2146 LINE"
);
},
{
closed = 1;
nodes = (
"1229 2145 LINE",
"1229 2146 LINE",
"1228 2146 LINE"
);
},
{
closed = 1;
nodes = (
"0 -555 LINE",
"1 -555 LINE",
"0 -554 LINE"
);
},
{
closed = 1;
nodes = (
"1228 -555 LINE",
"1229 -555 LINE",
"1229 -554 LINE"
);
}
);
width = 1229;
},
{
associatedMasterId = "C0D79264-8DAD-424A-B50D-8F788F2E65C8";
layerId = "7664611F-E746-483B-82DF-E3052AF7C2EA";
name = "Color 11";
paths = (
{
closed = 1;
nodes = (
"990 262 OFFCURVE",
"946 194 OFFCURVE",
"881 150 CURVE SMOOTH",
"816 105 OFFCURVE",
"730 84 OFFCURVE",
"645 84 CURVE SMOOTH",
"542 84 OFFCURVE",
"451 112 OFFCURVE",
"383 166 CURVE SMOOTH",
"315 220 OFFCURVE",
"270 301 OFFCURVE",
"258 405 CURVE",
"137 405 LINE",
"141 269 OFFCURVE",
"205 162 OFFCURVE",
"299 90 CURVE SMOOTH",
"393 18 OFFCURVE",
"517 -20 OFFCURVE",
"645 -20 CURVE SMOOTH",
"760 -20 OFFCURVE",
"877 11 OFFCURVE",
"965 75 CURVE SMOOTH",
"1053 138 OFFCURVE",
"1114 232 OFFCURVE",
"1114 360 CURVE SMOOTH",
"1114 445 OFFCURVE",
"1088 515 OFFCURVE",
"1045 572 CURVE SMOOTH",
"1001 629 OFFCURVE",
"941 673 OFFCURVE",
"874 709 CURVE SMOOTH",
"806 745 OFFCURVE",
"733 772 OFFCURVE",
"662 793 CURVE SMOOTH",
"586 816 OFFCURVE",
"496 845 OFFCURVE",
"425 892 CURVE SMOOTH",
"354 939 OFFCURVE",
"303 1005 OFFCURVE",
"303 1102 CURVE SMOOTH",
"303 1193 OFFCURVE",
"346 1260 OFFCURVE",
"410 1305 CURVE SMOOTH",
"473 1349 OFFCURVE",
"556 1371 OFFCURVE",
"637 1371 CURVE SMOOTH",
"734 1371 OFFCURVE",
"816 1338 OFFCURVE",
"876 1282 CURVE SMOOTH",
"936 1226 OFFCURVE",
"972 1147 OFFCURVE",
"983 1052 CURVE",
"1104 1052 LINE",
"1100 1180 OFFCURVE",
"1046 1287 OFFCURVE",
"962 1360 CURVE SMOOTH",
"877 1433 OFFCURVE",
"761 1476 OFFCURVE",
"637 1476 CURVE SMOOTH",
"526 1476 OFFCURVE",
"413 1443 OFFCURVE",
"326 1379 CURVE SMOOTH",
"239 1315 OFFCURVE",
"180 1221 OFFCURVE",
"180 1100 CURVE SMOOTH",
"180 1017 OFFCURVE",
"206 951 OFFCURVE",
"250 896 CURVE SMOOTH",
"293 841 OFFCURVE",
"353 799 OFFCURVE",
"419 765 CURVE SMOOTH",
"485 731 OFFCURVE",
"556 705 OFFCURVE",
"624 684 CURVE SMOOTH",
"677 667 OFFCURVE",
"736 647 OFFCURVE",
"791 622 CURVE SMOOTH",
"846 597 OFFCURVE",
"895 565 OFFCURVE",
"932 522 CURVE SMOOTH",
"968 479 OFFCURVE",
"990 426 OFFCURVE",
"990 358 CURVE SMOOTH"
);
},
{
closed = 1;
nodes = (
"0 -555 LINE",
"1229 -555 LINE",
"1229 2146 LINE",
"0 2146 LINE"
);
}
);
width = 1229;
},
{
associatedMasterId = "C0D79264-8DAD-424A-B50D-8F788F2E65C8";
layerId = "3F23C495-23C9-49ED-9191-3028B4C09914";
name = "Color 0";
paths = (
{
closed = 1;
nodes = (
"990 262 OFFCURVE",
"946 194 OFFCURVE",
"881 150 CURVE SMOOTH",
"816 105 OFFCURVE",
"730 84 OFFCURVE",
"645 84 CURVE SMOOTH",
"542 84 OFFCURVE",
"451 112 OFFCURVE",
"383 166 CURVE SMOOTH",
"315 220 OFFCURVE",
"270 301 OFFCURVE",
"258 405 CURVE",
"137 405 LINE",
"141 269 OFFCURVE",
"205 162 OFFCURVE",
"299 90 CURVE SMOOTH",
"393 18 OFFCURVE",
"517 -20 OFFCURVE",
"645 -20 CURVE SMOOTH",
"760 -20 OFFCURVE",
"877 11 OFFCURVE",
"965 75 CURVE SMOOTH",
"1053 138 OFFCURVE",
"1114 232 OFFCURVE",
"1114 360 CURVE SMOOTH",
"1114 445 OFFCURVE",
"1088 515 OFFCURVE",
"1045 572 CURVE SMOOTH",
"1001 629 OFFCURVE",
"941 673 OFFCURVE",
"874 709 CURVE SMOOTH",
"806 745 OFFCURVE",
"733 772 OFFCURVE",
"662 793 CURVE SMOOTH",
"586 816 OFFCURVE",
"496 845 OFFCURVE",
"425 892 CURVE SMOOTH",
"354 939 OFFCURVE",
"303 1005 OFFCURVE",
"303 1102 CURVE SMOOTH",
"303 1193 OFFCURVE",
"346 1260 OFFCURVE",
"410 1305 CURVE SMOOTH",
"473 1349 OFFCURVE",
"556 1371 OFFCURVE",
"637 1371 CURVE SMOOTH",
"734 1371 OFFCURVE",
"816 1338 OFFCURVE",
"876 1282 CURVE SMOOTH",
"936 1226 OFFCURVE",
"972 1147 OFFCURVE",
"983 1052 CURVE",
"1104 1052 LINE",
"1100 1180 OFFCURVE",
"1046 1287 OFFCURVE",
"962 1360 CURVE SMOOTH",
"877 1433 OFFCURVE",
"761 1476 OFFCURVE",
"637 1476 CURVE SMOOTH",
"526 1476 OFFCURVE",
"413 1443 OFFCURVE",
"326 1379 CURVE SMOOTH",
"239 1315 OFFCURVE",
"180 1221 OFFCURVE",
"180 1100 CURVE SMOOTH",
"180 1017 OFFCURVE",
"206 951 OFFCURVE",
"250 896 CURVE SMOOTH",
"293 841 OFFCURVE",
"353 799 OFFCURVE",
"419 765 CURVE SMOOTH",
"485 731 OFFCURVE",
"556 705 OFFCURVE",
"624 684 CURVE SMOOTH",
"677 667 OFFCURVE",
"736 647 OFFCURVE",
"791 622 CURVE SMOOTH",
"846 597 OFFCURVE",
"895 565 OFFCURVE",
"932 522 CURVE SMOOTH",
"968 479 OFFCURVE",
"990 426 OFFCURVE",
"990 358 CURVE SMOOTH"
);
}
);
width = 1229;
}
);
note = S;
unicode = 0053;
},
{
glyphname = T;
lastChange = "2018-03-22 14:44:04 +0000";
layers = (
{
layerId = "C0D79264-8DAD-424A-B50D-8F788F2E65C8";
paths = (
{
closed = 1;
nodes = (
"94 1456 LINE",
"94 1351 LINE",
"559 1351 LINE",
"558 0 LINE",
"675 0 LINE",
"675 1351 LINE",
"1139 1351 LINE",
"1139 1456 LINE"
);
},
{
closed = 1;
nodes = (
"0 2145 LINE",
"1 2146 LINE",
"0 2146 LINE"
);
},
{
closed = 1;
nodes = (
"1229 2145 LINE",
"1229 2146 LINE",
"1228 2146 LINE"
);
},
{
closed = 1;
nodes = (
"0 -555 LINE",
"1 -555 LINE",
"0 -554 LINE"
);
},
{
closed = 1;
nodes = (
"1228 -555 LINE",
"1229 -555 LINE",
"1229 -554 LINE"
);
}
);
width = 1229;
},
{
associatedMasterId = "C0D79264-8DAD-424A-B50D-8F788F2E65C8";
layerId = "5369B3BF-4145-48E8-AC1D-4A1312EE24F4";
name = "Color 12";
paths = (
{
closed = 1;
nodes = (
"94 1456 LINE",
"94 1351 LINE",
"559 1351 LINE",
"558 0 LINE",
"675 0 LINE",
"675 1351 LINE",
"1139 1351 LINE",
"1139 1456 LINE"
);
},
{
closed = 1;
nodes = (
"0 -555 LINE",
"1229 -555 LINE",
"1229 2146 LINE",
"0 2146 LINE"
);
}
);
width = 1229;
},
{
associatedMasterId = "C0D79264-8DAD-424A-B50D-8F788F2E65C8";
layerId = "61310295-74AD-46F0-BF80-41FB18B1CE08";
name = "Color 0";
paths = (
{
closed = 1;
nodes = (
"94 1456 LINE",
"94 1351 LINE",
"559 1351 LINE",
"558 0 LINE",
"675 0 LINE",
"675 1351 LINE",
"1139 1351 LINE",
"1139 1456 LINE"
);
}
);
width = 1229;
}
);
note = T;
unicode = 0054;
},
{
glyphname = U;
lastChange = "2018-03-20 15:04:27 +0000";
layers = (
{
layerId = "C0D79264-8DAD-424A-B50D-8F788F2E65C8";
paths = (
{
closed = 1;
nodes = (
"953 469 LINE SMOOTH",
"950 369 OFFCURVE",
"920 273 OFFCURVE",
"864 202 CURVE SMOOTH",
"807 130 OFFCURVE",
"723 84 OFFCURVE",
"615 84 CURVE SMOOTH",
"507 84 OFFCURVE",
"422 130 OFFCURVE",
"365 202 CURVE SMOOTH",
"308 273 OFFCURVE",
"276 369 OFFCURVE",
"275 469 CURVE SMOOTH",
"272 1456 LINE",
"159 1456 LINE",
"157 469 LINE SMOOTH",
"158 337 OFFCURVE",
"204 214 OFFCURVE",
"283 125 CURVE SMOOTH",
"362 36 OFFCURVE",
"475 -20 OFFCURVE",
"615 -20 CURVE SMOOTH",
"754 -20 OFFCURVE",
"867 37 OFFCURVE",
"946 126 CURVE SMOOTH",
"1025 214 OFFCURVE",
"1069 337 OFFCURVE",
"1072 469 CURVE",
"1071 1456 LINE",
"955 1456 LINE"
);
}
);
width = 1229;
}
);
note = U;
unicode = 0055;
},
{
glyphname = V;
lastChange = "2018-03-22 14:44:05 +0000";
layers = (
{
layerId = "C0D79264-8DAD-424A-B50D-8F788F2E65C8";
paths = (
{
closed = 1;
nodes = (
"88 1456 LINE",
"555 0 LINE",
"666 0 LINE",
"1133 1456 LINE",
"1006 1456 LINE",
"609 181 LINE",
"215 1456 LINE"
);
},
{
closed = 1;
nodes = (
"0 2145 LINE",
"1 2146 LINE",
"0 2146 LINE"
);
},
{
closed = 1;
nodes = (
"1229 2145 LINE",
"1229 2146 LINE",
"1228 2146 LINE"
);
},
{
closed = 1;
nodes = (
"0 -555 LINE",
"1 -555 LINE",
"0 -554 LINE"
);
},
{
closed = 1;
nodes = (
"1228 -555 LINE",
"1229 -555 LINE",
"1229 -554 LINE"
);
}
);
width = 1229;
},
{
associatedMasterId = "C0D79264-8DAD-424A-B50D-8F788F2E65C8";
layerId = "F69CF67B-A5C5-4C00-BB8A-BAD61EE20347";
name = "Color 15";
paths = (
{
closed = 1;
nodes = (
"88 1456 LINE",
"555 0 LINE",
"666 0 LINE",
"1133 1456 LINE",
"1006 1456 LINE",
"609 181 LINE",
"215 1456 LINE"
);
},
{
closed = 1;
nodes = (
"0 -555 LINE",
"1229 -555 LINE",
"1229 2146 LINE",
"0 2146 LINE"
);
}
);
width = 1229;
},
{
associatedMasterId = "C0D79264-8DAD-424A-B50D-8F788F2E65C8";
layerId = "33BE3862-8ADA-4711-BF7E-8680ED42EDEF";
name = "Color 0";
paths = (
{
closed = 1;
nodes = (
"88 1456 LINE",
"555 0 LINE",
"666 0 LINE",
"1133 1456 LINE",
"1006 1456 LINE",
"609 181 LINE",
"215 1456 LINE"
);
}
);
width = 1229;
}
);
note = V;
unicode = 0056;
},
{
glyphname = W;
lastChange = "2018-03-22 14:44:07 +0000";
layers = (
{
layerId = "C0D79264-8DAD-424A-B50D-8F788F2E65C8";
paths = (
{
closed = 1;
nodes = (
"85 1456 LINE",
"290 0 LINE",
"409 0 LINE",
"632 1214 LINE",
"854 0 LINE",
"973 0 LINE",
"1178 1456 LINE",
"1066 1456 LINE",
"917 330 LINE",
"908 225 LINE",
"896 330 LINE",
"684 1456 LINE",
"580 1456 LINE",
"368 330 LINE",
"356 228 LINE",
"348 330 LINE",
"198 1456 LINE"
);
},
{
closed = 1;
nodes = (
"0 2145 LINE",
"1 2146 LINE",
"0 2146 LINE"
);
},
{
closed = 1;
nodes = (
"1229 2145 LINE",
"1229 2146 LINE",
"1228 2146 LINE"
);
},
{
closed = 1;
nodes = (
"0 -555 LINE",
"1 -555 LINE",
"0 -554 LINE"
);
},
{
closed = 1;
nodes = (
"1228 -555 LINE",
"1229 -555 LINE",
"1229 -554 LINE"
);
}
);
width = 1229;
},
{
associatedMasterId = "C0D79264-8DAD-424A-B50D-8F788F2E65C8";
layerId = "5C376D81-1CEC-449E-9471-8F49BFF64B37";
name = "Color 13";
paths = (
{
closed = 1;
nodes = (
"85 1456 LINE",
"290 0 LINE",
"409 0 LINE",
"632 1214 LINE",
"854 0 LINE",
"973 0 LINE",
"1178 1456 LINE",
"1066 1456 LINE",
"917 330 LINE",
"908 225 LINE",
"896 330 LINE",
"684 1456 LINE",
"580 1456 LINE",
"368 330 LINE",
"356 228 LINE",
"348 330 LINE",
"198 1456 LINE"
);
},
{
closed = 1;
nodes = (
"0 -555 LINE",
"1229 -555 LINE",
"1229 2146 LINE",
"0 2146 LINE"
);
}
);
width = 1229;
},
{
associatedMasterId = "C0D79264-8DAD-424A-B50D-8F788F2E65C8";
layerId = "28A3FEF8-38E2-4CDF-9544-DC86B741D42D";
name = "Color 0";
paths = (
{
closed = 1;
nodes = (
"85 1456 LINE",
"290 0 LINE",
"409 0 LINE",
"632 1214 LINE",
"854 0 LINE",
"973 0 LINE",
"1178 1456 LINE",
"1066 1456 LINE",
"917 330 LINE",
"908 225 LINE",
"896 330 LINE",
"684 1456 LINE",
"580 1456 LINE",
"368 330 LINE",
"356 228 LINE",
"348 330 LINE",
"198 1456 LINE"
);
}
);
width = 1229;
}
);
note = W;
unicode = 0057;
},
{
glyphname = X;
lastChange = "2018-03-22 14:44:08 +0000";
layers = (
{
layerId = "C0D79264-8DAD-424A-B50D-8F788F2E65C8";
paths = (
{
closed = 1;
nodes = (
"121 1456 LINE",
"560 738 LINE",
"107 0 LINE",
"248 0 LINE",
"631 642 LINE",
"1013 0 LINE",
"1153 0 LINE",
"700 738 LINE",
"1139 1456 LINE",
"998 1456 LINE",
"629 834 LINE",
"262 1456 LINE"
);
},
{
closed = 1;
nodes = (
"0 2145 LINE",
"1 2146 LINE",
"0 2146 LINE"
);
},
{
closed = 1;
nodes = (
"1229 2145 LINE",
"1229 2146 LINE",
"1228 2146 LINE"
);
},
{
closed = 1;
nodes = (
"0 -555 LINE",
"1 -555 LINE",
"0 -554 LINE"
);
},
{
closed = 1;
nodes = (
"1228 -555 LINE",
"1229 -555 LINE",
"1229 -554 LINE"
);
}
);
width = 1229;
},
{
associatedMasterId = "C0D79264-8DAD-424A-B50D-8F788F2E65C8";
layerId = "333EDBA1-CDE8-45C6-9EA7-5DA2EA7E0777";
name = "Color 16";
paths = (
{
closed = 1;
nodes = (
"121 1456 LINE",
"560 738 LINE",
"107 0 LINE",
"248 0 LINE",
"631 642 LINE",
"1013 0 LINE",
"1153 0 LINE",
"700 738 LINE",
"1139 1456 LINE",
"998 1456 LINE",
"629 834 LINE",
"262 1456 LINE"
);
},
{
closed = 1;
nodes = (
"0 -555 LINE",
"1229 -555 LINE",
"1229 2146 LINE",
"0 2146 LINE"
);
}
);
width = 1229;
},
{
associatedMasterId = "C0D79264-8DAD-424A-B50D-8F788F2E65C8";
layerId = "FA5A1F3E-9740-48A4-A270-055D5C13CBA8";
name = "Color 0";
paths = (
{
closed = 1;
nodes = (
"121 1456 LINE",
"560 738 LINE",
"107 0 LINE",
"248 0 LINE",
"631 642 LINE",
"1013 0 LINE",
"1153 0 LINE",
"700 738 LINE",
"1139 1456 LINE",
"998 1456 LINE",
"629 834 LINE",
"262 1456 LINE"
);
}
);
width = 1229;
}
);
note = X;
unicode = 0058;
},
{
glyphname = Y;
lastChange = "2018-03-22 14:44:09 +0000";
layers = (
{
layerId = "C0D79264-8DAD-424A-B50D-8F788F2E65C8";
paths = (
{
closed = 1;
nodes = (
"75 1456 LINE",
"542 548 LINE",
"544 0 LINE",
"656 0 LINE",
"658 548 LINE",
"1125 1456 LINE",
"989 1456 LINE",
"600 662 LINE",
"214 1456 LINE"
);
},
{
closed = 1;
nodes = (
"0 2145 LINE",
"1 2146 LINE",
"0 2146 LINE"
);
},
{
closed = 1;
nodes = (
"1229 2145 LINE",
"1229 2146 LINE",
"1228 2146 LINE"
);
},
{
closed = 1;
nodes = (
"0 -555 LINE",
"1 -555 LINE",
"0 -554 LINE"
);
},
{
closed = 1;
nodes = (
"1228 -555 LINE",
"1229 -555 LINE",
"1229 -554 LINE"
);
}
);
width = 1229;
},
{
associatedMasterId = "C0D79264-8DAD-424A-B50D-8F788F2E65C8";
layerId = "6166F0A9-EE7F-4F61-B198-4E0A03254C01";
name = "Color 14";
paths = (
{
closed = 1;
nodes = (
"75 1456 LINE",
"542 548 LINE",
"544 0 LINE",
"656 0 LINE",
"658 548 LINE",
"1125 1456 LINE",
"989 1456 LINE",
"600 662 LINE",
"214 1456 LINE"
);
},
{
closed = 1;
nodes = (
"0 -555 LINE",
"1229 -555 LINE",
"1229 2146 LINE",
"0 2146 LINE"
);
}
);
width = 1229;
},
{
associatedMasterId = "C0D79264-8DAD-424A-B50D-8F788F2E65C8";
layerId = "01230572-48EC-460C-A338-7F6B5565FF4B";
name = "Color 0";
paths = (
{
closed = 1;
nodes = (
"75 1456 LINE",
"542 548 LINE",
"544 0 LINE",
"656 0 LINE",
"658 548 LINE",
"1125 1456 LINE",
"989 1456 LINE",
"600 662 LINE",
"214 1456 LINE"
);
}
);
width = 1229;
}
);
note = Y;
unicode = 0059;
},
{
glyphname = Z;
lastChange = "2018-03-22 14:44:11 +0000";
layers = (
{
layerId = "C0D79264-8DAD-424A-B50D-8F788F2E65C8";
paths = (
{
closed = 1;
nodes = (
"1032 1456 LINE",
"152 1456 LINE",
"152 1351 LINE",
"893 1351 LINE",
"128 93 LINE",
"130 0 LINE",
"1060 0 LINE",
"1060 104 LINE",
"266 104 LINE",
"1033 1368 LINE"
);
},
{
closed = 1;
nodes = (
"0 2145 LINE",
"1 2146 LINE",
"0 2146 LINE"
);
},
{
closed = 1;
nodes = (
"1229 2145 LINE",
"1229 2146 LINE",
"1228 2146 LINE"
);
},
{
closed = 1;
nodes = (
"0 -555 LINE",
"1 -555 LINE",
"0 -554 LINE"
);
},
{
closed = 1;
nodes = (
"1228 -555 LINE",
"1229 -555 LINE",
"1229 -554 LINE"
);
}
);
width = 1229;
},
{
associatedMasterId = "C0D79264-8DAD-424A-B50D-8F788F2E65C8";
layerId = "93B8779B-8180-4069-B306-2E5EF49E383C";
name = "Color 3";
paths = (
{
closed = 1;
nodes = (
"1032 1456 LINE",
"152 1456 LINE",
"152 1351 LINE",
"893 1351 LINE",
"128 93 LINE",
"130 0 LINE",
"1060 0 LINE",
"1060 104 LINE",
"266 104 LINE",
"1033 1368 LINE"
);
},
{
closed = 1;
nodes = (
"0 -555 LINE",
"1229 -555 LINE",
"1229 2146 LINE",
"0 2146 LINE"
);
}
);
width = 1229;
},
{
associatedMasterId = "C0D79264-8DAD-424A-B50D-8F788F2E65C8";
layerId = "5D04598F-B593-4978-960D-BD48D84BE90E";
name = "Color 0";
paths = (
{
closed = 1;
nodes = (
"1032 1456 LINE",
"152 1456 LINE",
"152 1351 LINE",
"893 1351 LINE",
"128 93 LINE",
"130 0 LINE",
"1060 0 LINE",
"1060 104 LINE",
"266 104 LINE",
"1033 1368 LINE"
);
}
);
width = 1229;
}
);
note = Z;
unicode = 005A;
},
{
glyphname = hyphen;
lastChange = "2019-09-13 10:34:37 +0000";
layers = (
{
layerId = "C0D79264-8DAD-424A-B50D-8F788F2E65C8";
paths = (
{
closed = 1;
nodes = (
"229 702 LINE",
"229 601 LINE",
"970 601 LINE",
"970 702 LINE"
);
}
